<svg xmlns="http://www.w3.org/2000/svg" xmlns:xlink="http://www.w3.org/1999/xlink" viewBox="0 0 112 32"><defs><path id="qk6i2xdp4a" d="M15.564 0h79.418c8.595 0 15.563 6.968 15.563 15.564 0 8.595-6.968 15.563-15.563 15.563H15.564C6.968 31.127 0 24.16 0 15.564 0 6.968 6.968 0 15.564 0z"></path></defs><g fill="none" fill-rule="evenodd" transform="matrix(-1 0 0 1 111.136 0)"><mask id="9cqwrs8vfb" fill="#fff"><use xlink:href="#qk6i2xdp4a"></use></mask><path stroke="#C4C4C4" stroke-width=".727" d="M15.564.364c-8.395 0-15.2 6.805-15.2 15.2 0 8.394 6.805 15.2 15.2 15.2h79.418c8.395 0 15.2-6.806 15.2-15.2 0-8.395-6.805-15.2-15.2-15.2H15.564z"></path><g stroke="#000" stroke-width="1.164" mask="url(#9cqwrs8vfb)"><g><path d="M5.653 23.207L5.653 28.562M13.686 17.256l-.777.566c-1.143.832-2.66.832-3.802 0l-.776-.565M15.769 23.207L15.769 28.562M16.066 7.736c0 3.06-2.264 7.14-5.058 7.14-2.793 0-5.058-4.08-5.058-7.14M4.76 7.736c3.072 0 4.99-2.976 4.99-2.976s2.688 2.976 6.911 2.976" transform="matrix(-1 0 0 1 32.636 3.418)"></path><path d="M10.71.755C7.214-1.845.434 2.215 3.857 13.751 5.14 18.083 0 19.816 0 19.816s8.14 2.599 8.997-5.199M10.71.755c3.498-2.6 10.278 1.46 6.856 12.996-1.286 4.332 3.855 6.065 3.855 6.065s-8.14 2.599-8.997-5.199" transform="matrix(-1 0 0 1 32.636 3.418)"></path><path d="M2.588 20.231c-.29.373-.532.782-.73 1.23-.452 1.025-.668 2.254-.668 3.72v1.803c0 .872.7 1.578 1.564 1.578h15.913c.864 0 1.564-.706 1.564-1.578v-1.803c0-1.466-.215-2.695-.668-3.72-.197-.448-.44-.857-.73-1.23" transform="matrix(-1 0 0 1 32.636 3.418)"></path></g></g><text fill="#6A6A6A" font-style="initial" font-size="14.545" transform="matrix(-1 0 0 1 133.364 0)"><tspan x="53.182" y="20.818">أنثى</tspan></text></g></svg>