<?xml version="1.0" encoding="utf-8"?>
<!-- Generator: Adobe Illustrator 24.0.1, SVG Export Plug-In . SVG Version: 6.00 Build 0)  -->
<svg version="1.1" id="Layer_1" xmlns="http://www.w3.org/2000/svg" xmlns:xlink="http://www.w3.org/1999/xlink" x="0px" y="0px"
	 viewBox="0 0 1200 1200" style="enable-background:new 0 0 1200 1200;" xml:space="preserve">
<style type="text/css">
	.st0{display:none;}
	.st1{display:inline;fill-rule:evenodd;clip-rule:evenodd;}
	.st2{display:inline;}
	.st3{fill-rule:evenodd;clip-rule:evenodd;fill:#010101;}
	.st4{fill:#010101;}
</style>
<g class="st0">
	<path class="st1" d="M1067.34,603.21c-3.99-93.5-30.28-174.69-81.19-250.22c-22.29-33.61-75.53-90.84-84.18-90.84
		c-7.99,0-24.96,21.3-44.92,55.57c-19.3,33.61-20.63,46.25-5.99,61.56c36.27,38.93,68.54,96.83,83.18,150.73
		c8.32,30.28,8.98,38.6,9.32,89.84c0,47.91-1,61.22-7.65,87.51c-16.97,68.88-48.58,122.11-102.48,173.69
		c-46.25,43.92-93.83,70.21-157.72,86.84c-32.94,8.65-99.82,11.98-136.75,6.32c-131.1-18.97-246.22-115.79-285.49-239.57
		c-35.27-110.8-15.97-233.58,50.58-322.75c82.52-110.47,218.61-164.37,352.37-139.42c22.29,3.99,22.63,3.99,35.94-5.32
		c30.28-20.96,56.9-66.55,71.54-123.44c4.66-17.64,8.32-34.94,8.32-38.26c0-7.99-1.33-7.99-23.62,3.66
		c-9.98,4.99-33.94,14.97-53.24,21.96l-34.6,12.31l-59.89,0.67c-68.21,0.33-102.15,5.32-157.38,23.62
		c-76.2,24.96-132.76,59.89-190.32,117.46c-65.88,66.21-107.47,140.08-128.44,229.25c-11.65,49.58-14.64,130.1-6.32,182.01
		c23.96,154.06,124.44,289.48,264.52,357.02c59.89,28.95,117.79,43.26,184.67,46.25c98.16,3.99,179.34-15.64,262.86-63.88
		C985.49,945.93,1074.66,782.89,1067.34,603.21z"/>
	<g class="st2">
		<path d="M663.75,561.4v66.92l-90.21,90.21v-66.92L663.75,561.4z M573.54,831.35h90.21V635.16l-90.21,90.21V831.35z M663.75,448.88
			H517.67v90.21h55.86v51.26l90.21-90.21V448.88z M663.75,504.69l-90.21,90.21v29.37l90.21-90.21V504.69z"/>
	</g>
</g>
<g class="st0">
	<path class="st1" d="M1067.34,603.21c-3.99-93.5-30.28-174.69-81.19-250.22c-22.29-33.61-75.53-90.84-84.18-90.84
		c-7.99,0-24.96,21.3-44.92,55.57c-19.3,33.61-20.63,46.25-5.99,61.56c36.27,38.93,68.54,96.83,83.18,150.73
		c8.32,30.28,8.98,38.6,9.32,89.84c0,47.91-1,61.22-7.65,87.51c-16.97,68.88-48.58,122.11-102.48,173.69
		c-46.25,43.92-93.83,70.21-157.72,86.84c-32.94,8.65-99.82,11.98-136.75,6.32c-131.1-18.97-246.22-115.79-285.49-239.57
		c-35.27-110.8-15.97-233.58,50.58-322.75c82.52-110.47,218.61-164.37,352.37-139.42c22.29,3.99,22.63,3.99,35.94-5.32
		c30.28-20.96,56.9-66.55,71.54-123.44c4.66-17.64,8.32-34.94,8.32-38.26c0-7.99-1.33-7.99-23.62,3.66
		c-9.98,4.99-33.94,14.97-53.24,21.96l-34.6,12.31l-59.89,0.67c-68.21,0.33-102.15,5.32-157.38,23.62
		c-76.2,24.96-132.76,59.89-190.32,117.46c-65.88,66.21-107.47,140.08-128.44,229.25c-11.65,49.58-14.64,130.1-6.32,182.01
		c23.96,154.06,124.44,289.48,264.52,357.02c59.89,28.95,117.79,43.26,184.67,46.25c98.16,3.99,179.34-15.64,262.86-63.88
		C985.49,945.93,1074.66,782.89,1067.34,603.21z"/>
	<g class="st2">
		<path d="M465.28,821.26l277.71-277.7c1.1,6.92,1.68,14,1.68,21.2c0,81.69-66.13,120.03-126.11,149.55
			c-8.42,4.15-47.56,15.51-61.76,19.97h180.76v86.98H465.28z M651.8,560.99c0.38,3.67,0.13,6.99-0.55,9.62
			c-7.35,28.64-44.23,50.12-75.36,66.29L446.75,766.03c-2.1,9.9-3.07,20.03-3.07,30.41v24.83h14.77l283.5-283.49
			c-3.48-16.93-10.29-32.75-20.24-46.69L651.8,560.99z M595.25,434.24c-47.6,0-87.74,14.67-116.1,42.41
			c-27.74,27.13-42.4,64.59-42.4,101.86h90.21c0-34.27,22.34-54.06,68.3-54.06c11.23,0,20.37,1.53,27.78,4.04l67.69-67.69
			C666.47,444.21,634.4,434.24,595.25,434.24z M693.37,462.72l-67.02,67.01c7.69,3.14,13.26,7.43,17.22,12.14l65.64-65.63
			C704.4,471.38,699.12,466.86,693.37,462.72z"/>
	</g>
</g>
<g class="st0">
	<path class="st1" d="M1067.34,603.21c-3.99-93.5-30.28-174.69-81.19-250.22c-22.29-33.61-75.53-90.84-84.18-90.84
		c-7.99,0-24.96,21.3-44.92,55.57c-19.3,33.61-20.63,46.25-5.99,61.56c36.27,38.93,68.54,96.83,83.18,150.73
		c8.32,30.28,8.98,38.6,9.32,89.84c0,47.91-1,61.22-7.65,87.51c-16.97,68.88-48.58,122.11-102.48,173.69
		c-46.25,43.92-93.83,70.21-157.72,86.84c-32.94,8.65-99.82,11.98-136.75,6.32c-131.1-18.97-246.22-115.79-285.49-239.57
		c-35.27-110.8-15.97-233.58,50.58-322.75c82.52-110.47,218.61-164.37,352.37-139.42c22.29,3.99,22.63,3.99,35.94-5.32
		c30.28-20.96,56.9-66.55,71.54-123.44c4.66-17.64,8.32-34.94,8.32-38.26c0-7.99-1.33-7.99-23.62,3.66
		c-9.98,4.99-33.94,14.97-53.24,21.96l-34.6,12.31l-59.89,0.67c-68.21,0.33-102.15,5.32-157.38,23.62
		c-76.2,24.96-132.76,59.89-190.32,117.46c-65.88,66.21-107.47,140.08-128.44,229.25c-11.65,49.58-14.64,130.1-6.32,182.01
		c23.96,154.06,124.44,289.48,264.52,357.02c59.89,28.95,117.79,43.26,184.67,46.25c98.16,3.99,179.34-15.64,262.86-63.88
		C985.49,945.93,1074.66,782.89,1067.34,603.21z"/>
	<g class="st2">
		<path d="M549.47,637.1l172.37-172.37h22.13v7.24L562.45,653.49L549.47,637.1z M432.03,719.35c0,9.35,1.17,18.46,3.36,27.27
			l27.27-27.27H432.03z M659.18,716.13c-4.66,32.97-44.05,48.64-70.07,48.64c-11.51,0-21.96-2.21-31.05-5.8l-65.02,65.02
			c26.58,17.38,59.9,27.75,96.06,27.75c94.37,0,160.29-54.44,160.29-132.4c0-44.47-16.37-77.06-51.19-100.51l-55.46,55.46
			C654.86,684.02,661.57,699.15,659.18,716.13z M467.23,719.35l-30.85,30.84c2.07,7.28,4.83,14.34,8.26,21.1l51.94-51.94H467.23z
			 M522.37,720.9l-67.35,67.36c9.09,12.51,20.57,23.67,33.92,33l64.34-64.34C534.83,748.17,523.25,733.63,522.37,720.9z
			 M457.33,464.73v86.99h149.55l-69.4,70.24l9.98,12.6l169.83-169.83H457.33z M743.97,524.98v-25.67L574.53,668.74l3.12,3.94
			l12.76-6.85c18.58-5.49,35.76-2.58,48.37,5.59l55.31-55.32c-8.31-5.2-17.57-9.96-27.87-14.25L743.97,524.98z"/>
	</g>
</g>
<g>
	<g>
		<path class="st3" d="M998.84,612.4c-3.34-78.1-25.29-145.91-67.81-209c-18.62-28.07-63.09-75.88-70.32-75.88
			c-6.67,0-20.84,17.79-37.52,46.41c-16.12,28.07-17.23,38.64-5,51.42c30.3,32.52,57.26,80.88,69.48,125.9
			c6.95,25.29,7.51,32.24,7.78,75.04c0,40.03-0.83,51.14-6.39,73.1c-14.18,57.53-40.58,102-85.6,145.08
			c-38.63,36.68-78.38,58.64-131.74,72.54c-27.52,7.23-83.38,10.01-114.23,5.28c-109.51-15.84-205.67-96.72-238.47-200.11
			c-29.46-92.55-13.34-195.11,42.24-269.59c68.93-92.28,182.6-137.3,294.33-116.46c18.62,3.34,18.9,3.34,30.02-4.45
			c25.29-17.51,47.53-55.59,59.76-103.11c3.89-14.73,6.95-29.18,6.95-31.96c0-6.67-1.11-6.67-19.73,3.06
			c-8.33,4.17-28.35,12.5-44.47,18.34L659.2,228.3l-50.03,0.56c-56.98,0.28-85.33,4.45-131.46,19.73
			c-63.65,20.85-110.9,50.03-158.98,98.11c-55.03,55.31-89.77,117.01-107.28,191.5c-9.72,41.41-12.23,108.67-5.28,152.03
			c20.01,128.68,103.95,241.8,220.95,298.22c50.03,24.18,98.39,36.13,154.25,38.63c81.99,3.34,149.8-13.06,219.57-53.36
			C930.47,898.67,1004.95,762.48,998.84,612.4"/>
	</g>
	<g>
		<path class="st4" d="M798.24,567.48c8.32,0,14.05,8.36,11.05,16.12l-12.41,32.12l-9.59,24.84l-17.7,45.77l-10.5,27.27
			l-14.46,37.43c-1.95,5.06-6.81,8.38-12.22,8.38H515.26c-5.41,0-10.27-3.32-12.21-8.38l-12.44-32.18c-0.98-2.53,0.89-5.25,3.6-5.25
			h213.14c1.59,0,3.03-0.98,3.6-2.47l9.55-24.8l17.69-45.77l8.52-22.06c0.98-2.53-0.89-5.24-3.6-5.24H529.36
			c-1.59,0-3.03-0.98-3.6-2.47l-14.72-38.06c-0.98-2.53,0.89-5.25,3.6-5.25H798.24z"/>
		<path class="st4" d="M502.99,623.88l-30.35,48.47l-80.99-207.64c-1.29-3.27,1.11-6.72,4.62-6.72h38.48c2.05,0,3.92,1.23,4.62,3.16
			L502.99,623.88z"/>
		<path class="st4" d="M704.84,645.81l-14.74,38.07c-0.58,1.46-1.99,2.46-3.63,2.46h-188.4l28.65-45.78h174.48
			C703.91,640.55,705.78,643.29,704.84,645.81z"/>
		<g>
			<path class="st4" d="M585.91,803c0,11.22-9.1,20.32-20.32,20.32c-11.22,0-20.32-9.1-20.32-20.32c0-11.22,9.1-20.32,20.32-20.32
				C576.81,782.68,585.91,791.78,585.91,803z"/>
			<path class="st4" d="M711.24,803c0,11.22-9.1,20.32-20.32,20.32c-11.22,0-20.32-9.1-20.32-20.32c0-11.22,9.1-20.32,20.32-20.32
				C702.14,782.68,711.24,791.78,711.24,803z"/>
		</g>
	</g>
</g>
</svg>
