<?xml version="1.0" encoding="utf-8"?>
<!-- Generator: Adobe Illustrator 24.0.1, SVG Export Plug-In . SVG Version: 6.00 Build 0)  -->
<svg version="1.1" id="Layer_1" xmlns="http://www.w3.org/2000/svg" xmlns:xlink="http://www.w3.org/1999/xlink" x="0px" y="0px"
	 viewBox="0 0 1200 1200" style="enable-background:new 0 0 1200 1200;" xml:space="preserve">
<style type="text/css">
	.st0{display:none;}
	.st1{display:inline;fill-rule:evenodd;clip-rule:evenodd;}
	.st2{display:inline;}
	.st3{fill-rule:evenodd;clip-rule:evenodd;fill:#010101;}
	.st4{fill:#010101;}
</style>
<g class="st0">
	<path class="st1" d="M1067.34,603.21c-3.99-93.5-30.28-174.69-81.19-250.22c-22.29-33.61-75.53-90.84-84.18-90.84
		c-7.99,0-24.96,21.3-44.92,55.57c-19.3,33.61-20.63,46.25-5.99,61.56c36.27,38.93,68.54,96.83,83.18,150.73
		c8.32,30.28,8.98,38.6,9.32,89.84c0,47.91-1,61.22-7.65,87.51c-16.97,68.88-48.58,122.11-102.48,173.69
		c-46.25,43.92-93.83,70.21-157.72,86.84c-32.94,8.65-99.82,11.98-136.75,6.32c-131.1-18.97-246.22-115.79-285.49-239.57
		c-35.27-110.8-15.97-233.58,50.58-322.75c82.52-110.47,218.61-164.37,352.37-139.42c22.29,3.99,22.63,3.99,35.94-5.32
		c30.28-20.96,56.9-66.55,71.54-123.44c4.66-17.64,8.32-34.94,8.32-38.26c0-7.99-1.33-7.99-23.62,3.66
		c-9.98,4.99-33.94,14.97-53.24,21.96l-34.6,12.31l-59.89,0.67c-68.21,0.33-102.15,5.32-157.38,23.62
		c-76.2,24.96-132.76,59.89-190.32,117.46c-65.88,66.21-107.47,140.08-128.44,229.25c-11.65,49.58-14.64,130.1-6.32,182.01
		c23.96,154.06,124.44,289.48,264.52,357.02c59.89,28.95,117.79,43.26,184.67,46.25c98.16,3.99,179.34-15.64,262.86-63.88
		C985.49,945.93,1074.66,782.89,1067.34,603.21z"/>
	<g class="st2">
		<path d="M663.75,561.4v66.92l-90.21,90.21v-66.92L663.75,561.4z M573.54,831.35h90.21V635.16l-90.21,90.21V831.35z M663.75,448.88
			H517.67v90.21h55.86v51.26l90.21-90.21V448.88z M663.75,504.69l-90.21,90.21v29.37l90.21-90.21V504.69z"/>
	</g>
</g>
<g class="st0">
	<path class="st1" d="M1067.34,603.21c-3.99-93.5-30.28-174.69-81.19-250.22c-22.29-33.61-75.53-90.84-84.18-90.84
		c-7.99,0-24.96,21.3-44.92,55.57c-19.3,33.61-20.63,46.25-5.99,61.56c36.27,38.93,68.54,96.83,83.18,150.73
		c8.32,30.28,8.98,38.6,9.32,89.84c0,47.91-1,61.22-7.65,87.51c-16.97,68.88-48.58,122.11-102.48,173.69
		c-46.25,43.92-93.83,70.21-157.72,86.84c-32.94,8.65-99.82,11.98-136.75,6.32c-131.1-18.97-246.22-115.79-285.49-239.57
		c-35.27-110.8-15.97-233.58,50.58-322.75c82.52-110.47,218.61-164.37,352.37-139.42c22.29,3.99,22.63,3.99,35.94-5.32
		c30.28-20.96,56.9-66.55,71.54-123.44c4.66-17.64,8.32-34.94,8.32-38.26c0-7.99-1.33-7.99-23.62,3.66
		c-9.98,4.99-33.94,14.97-53.24,21.96l-34.6,12.31l-59.89,0.67c-68.21,0.33-102.15,5.32-157.38,23.62
		c-76.2,24.96-132.76,59.89-190.32,117.46c-65.88,66.21-107.47,140.08-128.44,229.25c-11.65,49.58-14.64,130.1-6.32,182.01
		c23.96,154.06,124.44,289.48,264.52,357.02c59.89,28.95,117.79,43.26,184.67,46.25c98.16,3.99,179.34-15.64,262.86-63.88
		C985.49,945.93,1074.66,782.89,1067.34,603.21z"/>
	<g class="st2">
		<path d="M465.28,821.26l277.71-277.7c1.1,6.92,1.68,14,1.68,21.2c0,81.69-66.13,120.03-126.11,149.55
			c-8.42,4.15-47.56,15.51-61.76,19.97h180.76v86.98H465.28z M651.8,560.99c0.38,3.67,0.13,6.99-0.55,9.62
			c-7.35,28.64-44.23,50.12-75.36,66.29L446.75,766.03c-2.1,9.9-3.07,20.03-3.07,30.41v24.83h14.77l283.5-283.49
			c-3.48-16.93-10.29-32.75-20.24-46.69L651.8,560.99z M595.25,434.24c-47.6,0-87.74,14.67-116.1,42.41
			c-27.74,27.13-42.4,64.59-42.4,101.86h90.21c0-34.27,22.34-54.06,68.3-54.06c11.23,0,20.37,1.53,27.78,4.04l67.69-67.69
			C666.47,444.21,634.4,434.24,595.25,434.24z M693.37,462.72l-67.02,67.01c7.69,3.14,13.26,7.43,17.22,12.14l65.64-65.63
			C704.4,471.38,699.12,466.86,693.37,462.72z"/>
	</g>
</g>
<g class="st0">
	<path class="st1" d="M1067.34,603.21c-3.99-93.5-30.28-174.69-81.19-250.22c-22.29-33.61-75.53-90.84-84.18-90.84
		c-7.99,0-24.96,21.3-44.92,55.57c-19.3,33.61-20.63,46.25-5.99,61.56c36.27,38.93,68.54,96.83,83.18,150.73
		c8.32,30.28,8.98,38.6,9.32,89.84c0,47.91-1,61.22-7.65,87.51c-16.97,68.88-48.58,122.11-102.48,173.69
		c-46.25,43.92-93.83,70.21-157.72,86.84c-32.94,8.65-99.82,11.98-136.75,6.32c-131.1-18.97-246.22-115.79-285.49-239.57
		c-35.27-110.8-15.97-233.58,50.58-322.75c82.52-110.47,218.61-164.37,352.37-139.42c22.29,3.99,22.63,3.99,35.94-5.32
		c30.28-20.96,56.9-66.55,71.54-123.44c4.66-17.64,8.32-34.94,8.32-38.26c0-7.99-1.33-7.99-23.62,3.66
		c-9.98,4.99-33.94,14.97-53.24,21.96l-34.6,12.31l-59.89,0.67c-68.21,0.33-102.15,5.32-157.38,23.62
		c-76.2,24.96-132.76,59.89-190.32,117.46c-65.88,66.21-107.47,140.08-128.44,229.25c-11.65,49.58-14.64,130.1-6.32,182.01
		c23.96,154.06,124.44,289.48,264.52,357.02c59.89,28.95,117.79,43.26,184.67,46.25c98.16,3.99,179.34-15.64,262.86-63.88
		C985.49,945.93,1074.66,782.89,1067.34,603.21z"/>
	<g class="st2">
		<path d="M549.47,637.1l172.37-172.37h22.13v7.24L562.45,653.49L549.47,637.1z M432.03,719.35c0,9.35,1.17,18.46,3.36,27.27
			l27.27-27.27H432.03z M659.18,716.13c-4.66,32.97-44.05,48.64-70.07,48.64c-11.51,0-21.96-2.21-31.05-5.8l-65.02,65.02
			c26.58,17.38,59.9,27.75,96.06,27.75c94.37,0,160.29-54.44,160.29-132.4c0-44.47-16.37-77.06-51.19-100.51l-55.46,55.46
			C654.86,684.02,661.57,699.15,659.18,716.13z M467.23,719.35l-30.85,30.84c2.07,7.28,4.83,14.34,8.26,21.1l51.94-51.94H467.23z
			 M522.37,720.9l-67.35,67.36c9.09,12.51,20.57,23.67,33.92,33l64.34-64.34C534.83,748.17,523.25,733.63,522.37,720.9z
			 M457.33,464.73v86.99h149.55l-69.4,70.24l9.98,12.6l169.83-169.83H457.33z M743.97,524.98v-25.67L574.53,668.74l3.12,3.94
			l12.76-6.85c18.58-5.49,35.76-2.58,48.37,5.59l55.31-55.32c-8.31-5.2-17.57-9.96-27.87-14.25L743.97,524.98z"/>
	</g>
</g>
<g>
	<g>
		<path class="st3" d="M429.24,608c-1.08-25.19-8.16-47.06-21.87-67.4c-6.01-9.05-20.35-24.47-22.68-24.47
			c-2.15,0-6.72,5.74-12.1,14.97c-5.2,9.05-5.56,12.46-1.61,16.58c9.77,10.49,18.46,26.08,22.41,40.6c2.24,8.16,2.42,10.4,2.51,24.2
			c0,12.91-0.27,16.49-2.06,23.57c-4.57,18.55-13.09,32.89-27.61,46.79c-12.46,11.83-25.28,18.91-42.49,23.39
			c-8.87,2.33-26.89,3.23-36.84,1.7c-35.32-5.11-66.33-31.19-76.9-64.53c-9.5-29.85-4.3-62.92,13.62-86.94
			c22.23-29.76,58.89-44.28,94.92-37.56c6.01,1.08,6.1,1.08,9.68-1.43c8.16-5.65,15.33-17.93,19.27-33.25
			c1.26-4.75,2.24-9.41,2.24-10.31c0-2.15-0.36-2.15-6.36,0.99c-2.69,1.34-9.14,4.03-14.34,5.92l-9.32,3.32l-16.13,0.18
			c-18.37,0.09-27.52,1.43-42.39,6.36c-20.53,6.72-35.76,16.13-51.27,31.64c-17.75,17.84-28.95,37.73-34.6,61.76
			c-3.14,13.35-3.94,35.05-1.7,49.03c6.45,41.5,33.52,77.98,71.26,96.18c16.13,7.8,31.73,11.65,49.74,12.46
			c26.44,1.08,48.31-4.21,70.81-17.21C407.19,700.32,431.21,656.4,429.24,608"/>
		<path class="st3" d="M847.47,491.24c-10.67-1.34-20.08-0.54-30.83,2.78c-24.83,7.53-44.91,29.04-51.36,55.12
			c-2.15,8.87-2.15,26.53,0.09,35.32c1.88,7.71,7.08,19.45,11.2,25.46c9.77,14.07,23.13,24.02,40.16,29.76
			c9.32,3.14,27.87,4.03,37.47,1.79c15.69-3.67,27.07-10.13,38.27-21.87c12.01-12.55,18.55-26.62,20.61-44.01
			C917.91,534.08,888.79,496.62,847.47,491.24 M893.45,584.19c-5.65,17.12-19.45,31.37-36.48,37.55
			c-10.93,3.94-27.07,3.67-38.63-0.63c-10.4-3.85-22.95-14.43-28.95-24.38c-8.69-14.43-10.49-34.51-4.57-50.46
			c6.28-16.76,23.48-31.91,40.6-35.85c8.69-1.97,23.66-1.17,31.73,1.7c16.67,5.83,29.85,19.27,35.76,36.21
			c2.15,6.18,2.42,8.25,2.42,18.64C895.24,576.21,894.88,579.79,893.45,584.19"/>
		<path class="st3" d="M581.98,621.02c-0.18-0.09-16.4-0.45-36.12-0.72L510,619.86l-0.27-62.56l-0.18-62.47h-8.34
			c-4.66,0-8.69,0.27-8.96,0.63c-0.9,0.81-0.72,141.17,0.09,142.6c0.63,0.9,10.22,1.08,45.08,0.9l44.28-0.27l0.27-8.78
			C582.07,625.15,582.07,621.11,581.98,621.02"/>
		<path class="st3" d="M694.55,493.03c-6.54-1.7-20.7-2.78-26.35-2.15c-7.08,0.9-18.73,4.3-24.2,7.17
			c-27.7,14.16-44.28,42.04-42.75,72.06c1.44,27.52,17.3,52.61,40.69,64.44c10.67,5.38,18.55,7.44,30.39,7.89
			c12.82,0.63,20.17-0.54,30.83-4.48c10.31-3.94,16.85-8.43,26.44-18.11c12.37-12.55,19-26.53,21.15-45
			C755.14,538.11,730.41,502.17,694.55,493.03 M731.03,583.56c-5.29,17.03-18.37,31.1-35.32,37.73c-6.81,2.69-8.07,2.87-18.55,2.96
			c-9.05,0-12.37-0.36-17.48-1.88c-17.03-5.29-32.72-20.97-38.27-38.09c-2.51-7.8-2.78-25.72-0.36-33.43
			c5.83-19.27,21.51-34.87,40.15-39.89c8.25-2.24,25.46-1.97,32.54,0.54c17.39,6.1,31.19,20.17,36.84,37.38
			C733.9,559,734.08,573.61,731.03,583.56"/>
		<path class="st3" d="M558.32,656.16c-5.92-2.06-16.4-2.24-22.86-0.45c-14.25,3.85-24.11,19.09-22.95,35.4l0.45,6.81l-4.57,2.06
			c-5.56,2.6-12.01,8.96-14.79,14.61c-2.24,4.48-4.66,15.77-4.66,21.42v3.5h16.76l0.63-5.65c0.72-7.26,4.21-14.34,8.43-17.21
			c4.3-2.96,6.63-2.78,11.56,0.54c12.28,8.51,29.04,8.43,40.96-0.09C589.95,700.8,584.76,665.21,558.32,656.16 M559.12,702.05
			c-4.03,3.94-7.08,5.2-12.46,5.2c-10.31,0-17.66-7.62-17.75-18.37c0-7.62,4.03-14.16,10.67-17.12c3.5-1.52,10.49-1.61,14.16-0.09
			c1.61,0.72,4.3,2.87,6.09,4.84C566.56,683.94,566.29,695.06,559.12,702.05"/>
		<path class="st3" d="M1052.27,494.82l-7.08,10.58c-3.86,5.74-15.78,23.48-26.45,39.35c-10.58,15.96-19.72,28.96-20.25,28.96
			c-0.81-0.08-47.16-68.75-51.01-75.74l-1.79-3.14h-9.51c-5.29,0-9.86,0.28-10.12,0.64c-0.36,0.26-0.63,32.53-0.63,71.62v71.15
			l2.06,0.46c1.08,0.26,5.02,0.45,8.69,0.26l6.73-0.26l0.26-55.85c0.1-35.05,0.55-55.75,1.08-55.75c0.45,0,12.64,17.74,27.07,39.43
			c14.43,21.69,26.71,39.45,27.26,39.45c0.53,0,13-17.93,27.69-39.9c14.61-21.95,26.81-39.88,26.98-39.88
			c0.19,0,0.36,38.26,0.36,85.15v85.15H922.42l-6.22,17.62l154.89-0.15l0.27-109.61l0.17-109.54H1052.27z M660.14,687.7
			c0-15.77-3.14-24.11-12.11-32.27c-17.91-16.4-47.5-9.31-56.19,13.45c-6.27,16.59,0.89,35.41,16.59,43.21
			c4.29,2.15,5.38,2.34,17.47,2.34h12.92l-1.25,2.06c-2.51,3.76-6.73,5.1-16.4,5.1c-13.72,0-13.09-0.45-12.83,9.33l0.27,8.16h13
			c12.45,0,13.26-0.09,18.63-2.61c7.09-3.21,14.7-11.11,16.95-17.57l1.61-4.47l76.32-0.07V696.5h-74.98V687.7z M641.76,696.05
			l-13.81,0.26l-13.71,0.27l-3.06-3.23c-8.78-9.33-4.74-25.28,7.35-29.57c1.97-0.72,4.76-1.25,6.29-1.34
			c4.38,0,11.83,4.21,14.51,8.33c2.34,3.4,2.42,4.21,2.42,14.43V696.05z"/>
	</g>
	<g>
		<path class="st4" d="M364.55,593.51c2.68,0,4.53,2.7,3.56,5.2l-4,10.36l-3.09,8.01l-5.71,14.76l-3.39,8.79l-4.66,12.07
			c-0.63,1.63-2.2,2.7-3.94,2.7h-70.03c-1.75,0-3.31-1.07-3.94-2.7l-4.01-10.38c-0.31-0.82,0.29-1.69,1.16-1.69h68.73
			c0.51,0,0.98-0.32,1.16-0.8l3.08-8l5.71-14.76l2.75-7.12c0.31-0.82-0.29-1.69-1.16-1.69h-68.94c-0.51,0-0.98-0.32-1.16-0.8
			l-4.75-12.27c-0.31-0.82,0.29-1.69,1.16-1.69H364.55z"/>
		<path class="st4" d="M269.33,611.7l-9.79,15.63l-26.12-66.96c-0.41-1.06,0.36-2.17,1.49-2.17h12.41c0.66,0,1.26,0.4,1.49,1.02
			L269.33,611.7z"/>
		<path class="st4" d="M334.43,618.77l-4.75,12.28c-0.19,0.47-0.64,0.79-1.17,0.79h-60.76l9.24-14.77h56.27
			C334.12,617.08,334.73,617.96,334.43,618.77z"/>
		<g>
			<path class="st4" d="M296.07,669.47c0,3.62-2.93,6.55-6.55,6.55c-3.62,0-6.55-2.93-6.55-6.55c0-3.62,2.93-6.55,6.55-6.55
				C293.14,662.91,296.07,665.85,296.07,669.47z"/>
			<path class="st4" d="M336.49,669.47c0,3.62-2.93,6.55-6.55,6.55c-3.62,0-6.55-2.93-6.55-6.55c0-3.62,2.93-6.55,6.55-6.55
				C333.55,662.91,336.49,665.85,336.49,669.47z"/>
		</g>
	</g>
	<g id="XMLID_183_">
		<path id="XMLID_207_" class="st4" d="M822.54,676.8c-0.23-0.87-0.39-1.03-0.94-1.03c-0.56,0-0.72,0.16-0.95,1.03l-4.97,20.64
			h11.82L822.54,676.8z M862.58,674.82h-6.22v18.29h6.46c4.49,0,6.77-2.36,6.77-7.18v-3.86
			C869.6,677.11,867.55,674.82,862.58,674.82z M862.58,674.82h-6.22v18.29h6.46c4.49,0,6.77-2.36,6.77-7.18v-3.86
			C869.6,677.11,867.55,674.82,862.58,674.82z M822.54,676.8c-0.23-0.87-0.39-1.03-0.94-1.03c-0.56,0-0.72,0.16-0.95,1.03
			l-4.97,20.64h11.82L822.54,676.8z M909.22,659.35H713.59c-3.3,0-6.01,2.7-6.01,6c0,1.64,0.68,3.15,1.77,4.24
			c1.09,1.09,2.59,1.77,4.24,1.77h37.02c0.02,0.45,0.06,0.9,0.14,1.37c0.37,2.11,0.97,4.64,1.73,7.39h-16.41c-3.3,0-6,2.71-6,6.01
			c0,3.3,2.7,6,6,6h20.01c1.01,3.1,2.03,6.18,3,9.09h-14.96c-3.3,0-6,2.7-6,6c0,3.3,2.7,6.01,6,6.01h19.05
			c3.02,7.8,11.08,12.41,18.32,12.41h113.48c7.76,0,12.55-2.88,16.61-14.1c3.27-9.01,9.91-28.11,11.75-38.8
			C924.65,665.07,920.14,659.35,909.22,659.35z M781.57,712.34c4.48,0,7.09-2.44,7.09-7.8c0-1.57,0.79-2.36,2.44-2.36h3.55
			c2.05,0,3.07,1.03,3.07,3.15c0,9.46-6.7,15.06-16.15,15.06c-12.06,0-17.59-6.39-17.59-20.49v-13.41c0-14.1,5.52-20.49,17.59-20.49
			c9.45,0,16.15,5.52,16.15,14.98c0,2.12-1.02,3.15-3.07,3.15h-3.55c-1.66,0-2.44-0.79-2.44-2.36c0-5.36-2.61-7.72-7.09-7.72
			c-5.68,0-8.28,3.07-8.28,10v18.21C773.29,709.19,775.88,712.34,781.57,712.34z M839.1,719.6h-3.94c-2.13,0-2.52-0.72-2.92-2.52
			l-2.84-11.59h-15.69l-2.76,11.59c-0.41,1.81-0.8,2.52-2.93,2.52h-3.94c-2.13,0-2.61-1.26-2.28-2.44l12.13-46.75
			c0.87-3.07,2.61-3.62,5.05-3.62h5.2c2.44,0,4.18,0.56,5.05,3.62l12.13,46.75C841.7,718.34,841.23,719.6,839.1,719.6z
			 M878.11,719.6h-4.72c-1.49,0-2.13-0.72-3-2.21l-8.74-16.24h-5.28v16.08c0,1.57-0.8,2.37-2.37,2.37h-4.18
			c-1.57,0-2.36-0.8-2.36-2.37v-48.08c0-1.57,0.79-2.36,2.36-2.36h13.72c8.9,0,15.36,4.97,15.36,15.69v3.08
			c0,7.02-3.15,11.89-8.43,14.18l9.77,17.03c0.24,0.54,0.39,0.94,0.39,1.26C880.63,719.05,879.76,719.6,878.11,719.6z
			 M911.74,679.23l-0.1,0.02c0.03-0.02,0.08-0.05,0.12-0.07L911.74,679.23z M915.94,672.46c0,1.59-0.79,2.36-2.36,2.36h-9.46v42.41
			c0,1.57-0.79,2.37-2.37,2.37h-4.17c-1.57,0-2.37-0.8-2.37-2.37v-42.41h-9.45c-1.59,0-2.37-0.78-2.37-2.36v-3.31
			c0-1.57,0.79-2.36,2.37-2.36h27.82c1.57,0,2.36,0.79,2.36,2.36V672.46z M906.25,668.76v0.05h0.23c0.16,0,0.31,0,0.46,0.01
			c-0.01,0-0.02-0.01-0.03-0.01C906.69,668.8,906.47,668.76,906.25,668.76z M862.58,674.82h-6.22v18.29h6.46
			c4.49,0,6.77-2.36,6.77-7.18v-3.86C869.6,677.11,867.55,674.82,862.58,674.82z M821.6,675.77c-0.56,0-0.72,0.16-0.95,1.03
			l-4.97,20.64h11.82l-4.97-20.64C822.31,675.93,822.15,675.77,821.6,675.77z M822.54,676.8c-0.23-0.87-0.39-1.03-0.94-1.03
			c-0.56,0-0.72,0.16-0.95,1.03l-4.97,20.64h11.82L822.54,676.8z M822.54,676.8c-0.23-0.87-0.39-1.03-0.94-1.03
			c-0.56,0-0.72,0.16-0.95,1.03l-4.97,20.64h11.82L822.54,676.8z"/>
		<path id="XMLID_209_" class="st4" d="M789.16,729.11c-3.36,0-6.08,2.72-6.08,6.08c0,3.36,2.72,6.08,6.08,6.08s6.08-2.72,6.08-6.08
			C795.25,731.83,792.52,729.11,789.16,729.11z"/>
		<circle id="XMLID_210_" class="st4" cx="719.67" cy="686.4" r="6.08"/>
		<path id="XMLID_211_" class="st4" d="M881.91,729.11c-3.36,0-6.08,2.72-6.08,6.08c0,3.36,2.72,6.08,6.08,6.08s6.08-2.72,6.08-6.08
			C888,731.83,885.27,729.11,881.91,729.11z"/>
		<path id="XMLID_212_" class="st4" d="M911.74,679.23l0.01-0.05c-0.04,0.02-0.08,0.05-0.12,0.07L911.74,679.23z"/>
		<path class="st4" d="M906.91,668.81h-0.66v-0.05C906.47,668.76,906.69,668.8,906.91,668.81z"/>
		<path class="st4" d="M906.95,668.82c-0.15-0.01-0.3-0.01-0.46-0.01h0.43C906.92,668.81,906.94,668.82,906.95,668.82z"/>
	</g>
	<g id="XMLID_236_">
		<path id="XMLID_223_" class="st4" d="M903.67,669.99c-0.22-0.01-0.43-0.05-0.65-0.05v0.05h0.23c0.16,0,0.31,0,0.46,0.01
			C903.69,670,903.68,669.99,903.67,669.99z"/>
	</g>
</g>
</svg>
