<svg xmlns="http://www.w3.org/2000/svg" xmlns:xlink="http://www.w3.org/1999/xlink" viewBox="0 0 97 32"><defs><path id="r6ejfyf4ta" d="M15.564 0h64.872C89.032 0 96 6.968 96 15.564c0 8.595-6.968 15.563-15.564 15.563H15.564C6.968 31.127 0 24.16 0 15.564 0 6.968 6.968 0 15.564 0z"></path></defs><g fill="none" fill-rule="evenodd" transform="matrix(-1 0 0 1 96.864 0)"><mask id="zuu1vrjjkb" fill="#fff"><use xlink:href="#r6ejfyf4ta"></use></mask><path stroke="#C4C4C4" stroke-width=".727" d="M15.564.364c-8.395 0-15.2 6.805-15.2 15.2 0 8.394 6.805 15.2 15.2 15.2h64.872c8.395 0 15.2-6.806 15.2-15.2 0-8.395-6.805-15.2-15.2-15.2H15.564z"></path><g stroke="#000" stroke-width="1.243" mask="url(#zuu1vrjjkb)"><g><path d="M15.691 9.93c-.753 2.689-2.886 5.377-5.4 5.377-2.523 0-4.663-2.71-5.408-5.41M5.005 23.705L5.005 29.162M18.558 29.162c.898 0 1.626-.718 1.626-1.603v-1.832c0-4.565-2.107-6.873-6.958-7.88l-2.934 2.01-2.934-2.01C2.506 18.853.399 21.161.399 25.726v1.832c0 .885.728 1.603 1.626 1.603h16.533zM15.578 23.705L15.578 29.162M7.357 17.846c.731-.597.731-3.204.731-3.204M13.226 17.846c-.731-.597-.731-3.204-.731-3.204" transform="matrix(-1 0 0 1 31.636 3.418)"></path><path d="M10.122 0c5.376 0 7.662 1.977 5.949 9.703-.068.307-.51.32-.594.017-.315-1.135-.752-3.435-.752-3.435-.014-.285-.262-.473-.551-.476-1.888-.02-3.976-1.197-3.976-1.197-.27-.055-.514.16-.46.405l.786 2.076L7.03 5.27c-.333-.172-.755-.1-.996.17l-.928 4.243c-.08.306-.527.298-.595-.011C2.807 1.972 5.061 0 10.43 0" transform="matrix(-1 0 0 1 31.636 3.418)"></path></g></g><text fill="#6A6A6A" font-style="initial" font-size="14.545" transform="matrix(-1 0 0 1 116.364 0)"><tspan x="47.182" y="20.818">ذكر</tspan></text></g></svg>