<?xml version="1.0" encoding="UTF-8"?>
<svg xmlns="http://www.w3.org/2000/svg" xmlns:xlink="http://www.w3.org/1999/xlink" width="80px" height="80px" viewBox="0 0 80 80" version="1.1">
<g id="surface1">
<path style=" stroke:none;fill-rule:evenodd;fill:rgb(0.392157%,0.392157%,0.392157%);fill-opacity:1;" d="M 28.617188 40.535156 C 28.542969 38.855469 28.070312 37.394531 27.15625 36.039062 C 26.757812 35.4375 25.800781 34.410156 25.644531 34.410156 C 25.503906 34.410156 25.199219 34.792969 24.839844 35.40625 C 24.492188 36.011719 24.46875 36.238281 24.730469 36.511719 C 25.382812 37.210938 25.960938 38.25 26.226562 39.21875 C 26.375 39.761719 26.386719 39.910156 26.394531 40.832031 C 26.394531 41.691406 26.375 41.929688 26.257812 42.402344 C 25.953125 43.640625 25.382812 44.597656 24.414062 45.523438 C 23.585938 46.3125 22.730469 46.785156 21.582031 47.082031 C 20.992188 47.238281 19.789062 47.296875 19.125 47.195312 C 16.773438 46.855469 14.703125 45.117188 14 42.894531 C 13.367188 40.902344 13.714844 38.699219 14.90625 37.097656 C 16.390625 35.113281 18.835938 34.144531 21.234375 34.59375 C 21.636719 34.664062 21.644531 34.664062 21.882812 34.496094 C 22.425781 34.121094 22.902344 33.300781 23.164062 32.28125 C 23.25 31.964844 23.316406 31.652344 23.316406 31.59375 C 23.316406 31.449219 23.292969 31.449219 22.890625 31.660156 C 22.710938 31.75 22.28125 31.929688 21.933594 32.054688 L 21.3125 32.277344 L 20.238281 32.289062 C 19.015625 32.292969 18.402344 32.382812 17.414062 32.710938 C 16.042969 33.160156 15.027344 33.789062 13.996094 34.820312 C 12.8125 36.011719 12.066406 37.335938 11.6875 38.9375 C 11.480469 39.828125 11.425781 41.273438 11.574219 42.207031 C 12.003906 44.972656 13.808594 47.40625 16.324219 48.621094 C 17.402344 49.140625 18.441406 49.394531 19.640625 49.449219 C 21.402344 49.523438 22.863281 49.167969 24.363281 48.300781 C 27.144531 46.6875 28.746094 43.761719 28.617188 40.535156 "/>
<path style=" stroke:none;fill-rule:evenodd;fill:rgb(0.392157%,0.392157%,0.392157%);fill-opacity:1;" d="M 56.496094 32.75 C 55.785156 32.660156 55.160156 32.714844 54.441406 32.933594 C 52.789062 33.4375 51.449219 34.871094 51.019531 36.609375 C 50.875 37.199219 50.875 38.378906 51.023438 38.964844 C 51.148438 39.476562 51.496094 40.261719 51.769531 40.660156 C 52.421875 41.597656 53.3125 42.261719 54.449219 42.644531 C 55.070312 42.855469 56.308594 42.914062 56.945312 42.765625 C 57.992188 42.519531 58.75 42.089844 59.496094 41.308594 C 60.296875 40.46875 60.734375 39.53125 60.871094 38.371094 C 61.195312 35.605469 59.253906 33.109375 56.496094 32.75 M 59.5625 38.945312 C 59.1875 40.085938 58.265625 41.039062 57.132812 41.449219 C 56.402344 41.710938 55.328125 41.695312 54.554688 41.40625 C 53.863281 41.152344 53.027344 40.445312 52.625 39.78125 C 52.046875 38.820312 51.925781 37.480469 52.320312 36.417969 C 52.738281 35.300781 53.886719 34.289062 55.027344 34.027344 C 55.605469 33.898438 56.605469 33.949219 57.144531 34.140625 C 58.253906 34.53125 59.132812 35.425781 59.527344 36.554688 C 59.671875 36.96875 59.6875 37.105469 59.6875 37.796875 C 59.683594 38.414062 59.660156 38.652344 59.5625 38.945312 "/>
<path style=" stroke:none;fill-rule:evenodd;fill:rgb(0.392157%,0.392157%,0.392157%);fill-opacity:1;" d="M 38.796875 41.402344 C 38.785156 41.394531 37.707031 41.371094 36.390625 41.351562 L 34 41.324219 L 33.980469 37.152344 L 33.96875 32.988281 L 33.414062 32.988281 C 33.101562 32.988281 32.835938 33.007812 32.816406 33.03125 C 32.757812 33.085938 32.769531 42.441406 32.824219 42.539062 C 32.863281 42.597656 33.503906 42.609375 35.828125 42.597656 L 38.78125 42.578125 L 38.796875 41.992188 C 38.804688 41.675781 38.804688 41.40625 38.796875 41.402344 "/>
<path style=" stroke:none;fill-rule:evenodd;fill:rgb(0.392157%,0.392157%,0.392157%);fill-opacity:1;" d="M 46.304688 32.867188 C 45.867188 32.753906 44.921875 32.683594 44.546875 32.726562 C 44.074219 32.785156 43.296875 33.011719 42.933594 33.203125 C 41.085938 34.148438 39.980469 36.007812 40.082031 38.007812 C 40.179688 39.84375 41.238281 41.515625 42.796875 42.304688 C 43.507812 42.660156 44.03125 42.800781 44.820312 42.828125 C 45.675781 42.871094 46.167969 42.792969 46.878906 42.53125 C 47.566406 42.269531 48 41.96875 48.640625 41.324219 C 49.464844 40.488281 49.90625 39.554688 50.050781 38.324219 C 50.34375 35.875 48.695312 33.476562 46.304688 32.867188 M 48.734375 38.902344 C 48.382812 40.039062 47.511719 40.976562 46.378906 41.417969 C 45.925781 41.597656 45.84375 41.609375 45.144531 41.617188 C 44.539062 41.617188 44.320312 41.59375 43.980469 41.492188 C 42.84375 41.136719 41.796875 40.09375 41.425781 38.953125 C 41.261719 38.433594 41.242188 37.238281 41.402344 36.722656 C 41.792969 35.4375 42.835938 34.398438 44.078125 34.0625 C 44.628906 33.914062 45.777344 33.933594 46.25 34.101562 C 47.410156 34.507812 48.328125 35.445312 48.707031 36.59375 C 48.925781 37.265625 48.9375 38.242188 48.734375 38.902344 "/>
<path style=" stroke:none;fill-rule:evenodd;fill:rgb(0.392157%,0.392157%,0.392157%);fill-opacity:1;" d="M 37.222656 43.742188 C 36.828125 43.605469 36.128906 43.59375 35.699219 43.714844 C 34.746094 43.96875 34.089844 44.988281 34.167969 46.074219 L 34.199219 46.527344 L 33.894531 46.664062 C 33.523438 46.839844 33.09375 47.261719 32.90625 47.640625 C 32.757812 47.9375 32.597656 48.691406 32.597656 49.066406 L 32.597656 49.300781 L 33.714844 49.300781 L 33.753906 48.925781 C 33.804688 48.441406 34.035156 47.96875 34.316406 47.777344 C 34.605469 47.578125 34.757812 47.589844 35.089844 47.8125 C 35.90625 48.378906 37.023438 48.375 37.820312 47.808594 C 39.328125 46.71875 38.984375 44.347656 37.222656 43.742188 M 37.273438 46.804688 C 37.007812 47.066406 36.800781 47.148438 36.445312 47.148438 C 35.757812 47.148438 35.265625 46.640625 35.261719 45.925781 C 35.261719 45.417969 35.53125 44.980469 35.972656 44.785156 C 36.207031 44.683594 36.671875 44.675781 36.914062 44.777344 C 37.023438 44.824219 37.203125 44.96875 37.320312 45.101562 C 37.769531 45.597656 37.753906 46.335938 37.273438 46.804688 "/>
<path style=" stroke:none;fill-rule:evenodd;fill:rgb(0.392157%,0.392157%,0.392157%);fill-opacity:1;" d="M 70.152344 32.988281 L 69.679688 33.691406 C 69.421875 34.074219 68.628906 35.257812 67.914062 36.316406 C 67.210938 37.378906 66.601562 38.246094 66.566406 38.246094 C 66.511719 38.242188 63.421875 33.664062 63.164062 33.199219 L 63.046875 32.988281 L 62.410156 32.988281 C 62.058594 32.988281 61.753906 33.007812 61.738281 33.03125 C 61.714844 33.046875 61.695312 35.199219 61.695312 37.804688 L 61.695312 42.550781 L 61.832031 42.578125 C 61.90625 42.597656 62.167969 42.609375 62.410156 42.597656 L 62.859375 42.578125 L 62.878906 38.855469 C 62.882812 36.519531 62.914062 35.140625 62.949219 35.140625 C 62.980469 35.140625 63.792969 36.324219 64.753906 37.769531 C 65.714844 39.214844 66.535156 40.398438 66.570312 40.398438 C 66.605469 40.398438 67.4375 39.203125 68.417969 37.738281 C 69.390625 36.273438 70.207031 35.078125 70.214844 35.078125 C 70.230469 35.078125 70.242188 37.628906 70.242188 40.757812 L 70.242188 46.433594 L 61.496094 46.433594 L 61.078125 47.609375 L 71.40625 47.597656 L 71.425781 40.289062 L 71.433594 32.988281 Z M 44.007812 45.847656 C 44.007812 44.796875 43.800781 44.238281 43.203125 43.695312 C 42.007812 42.601562 40.035156 43.074219 39.457031 44.59375 C 39.039062 45.699219 39.515625 46.953125 40.5625 47.472656 C 40.847656 47.617188 40.921875 47.628906 41.726562 47.628906 L 42.589844 47.628906 L 42.503906 47.765625 C 42.335938 48.015625 42.054688 48.105469 41.410156 48.105469 C 40.496094 48.105469 40.539062 48.074219 40.554688 48.726562 L 40.574219 49.273438 L 41.441406 49.273438 C 42.269531 49.273438 42.324219 49.265625 42.683594 49.097656 C 43.15625 48.882812 43.664062 48.355469 43.8125 47.925781 L 43.921875 47.628906 L 49.007812 47.625 L 49.007812 46.433594 L 44.007812 46.433594 Z M 42.785156 46.402344 L 41.863281 46.421875 L 40.949219 46.4375 L 40.746094 46.222656 C 40.160156 45.601562 40.429688 44.539062 41.234375 44.253906 C 41.367188 44.203125 41.550781 44.167969 41.65625 44.164062 C 41.945312 44.164062 42.441406 44.441406 42.621094 44.71875 C 42.777344 44.945312 42.785156 45 42.785156 45.679688 Z M 42.785156 46.402344 "/>
<path style=" stroke:none;fill-rule:nonzero;fill:rgb(0.392157%,0.392157%,0.392157%);fill-opacity:1;" d="M 24.304688 39.566406 C 24.480469 39.566406 24.605469 39.746094 24.539062 39.914062 L 24.273438 40.605469 L 24.066406 41.136719 L 23.6875 42.121094 L 23.460938 42.707031 L 23.152344 43.511719 C 23.109375 43.621094 23.003906 43.691406 22.886719 43.691406 L 18.21875 43.691406 C 18.101562 43.691406 18 43.621094 17.957031 43.511719 L 17.6875 42.820312 C 17.667969 42.765625 17.707031 42.707031 17.765625 42.707031 L 22.347656 42.707031 C 22.382812 42.707031 22.414062 42.6875 22.425781 42.65625 L 22.632812 42.121094 L 23.011719 41.136719 L 23.195312 40.664062 C 23.214844 40.609375 23.175781 40.550781 23.117188 40.550781 L 18.523438 40.550781 C 18.488281 40.550781 18.457031 40.53125 18.445312 40.496094 L 18.128906 39.679688 C 18.105469 39.625 18.148438 39.566406 18.207031 39.566406 Z M 24.304688 39.566406 "/>
<path style=" stroke:none;fill-rule:nonzero;fill:rgb(0.392157%,0.392157%,0.392157%);fill-opacity:1;" d="M 17.957031 40.78125 L 17.300781 41.820312 L 15.5625 37.359375 C 15.535156 37.289062 15.585938 37.214844 15.660156 37.214844 L 16.488281 37.214844 C 16.53125 37.214844 16.570312 37.238281 16.585938 37.28125 Z M 17.957031 40.78125 "/>
<path style=" stroke:none;fill-rule:nonzero;fill:rgb(0.392157%,0.392157%,0.392157%);fill-opacity:1;" d="M 22.296875 41.25 L 21.980469 42.070312 C 21.964844 42.101562 21.9375 42.121094 21.902344 42.121094 L 17.851562 42.121094 L 18.464844 41.136719 L 22.21875 41.136719 C 22.273438 41.136719 22.316406 41.199219 22.296875 41.25 Z M 22.296875 41.25 "/>
<path style=" stroke:none;fill-rule:nonzero;fill:rgb(0.392157%,0.392157%,0.392157%);fill-opacity:1;" d="M 19.738281 44.632812 C 19.738281 44.871094 19.542969 45.066406 19.300781 45.066406 C 19.058594 45.066406 18.863281 44.871094 18.863281 44.632812 C 18.863281 44.390625 19.058594 44.195312 19.300781 44.195312 C 19.542969 44.195312 19.738281 44.390625 19.738281 44.632812 Z M 19.738281 44.632812 "/>
<path style=" stroke:none;fill-rule:nonzero;fill:rgb(0.392157%,0.392157%,0.392157%);fill-opacity:1;" d="M 22.433594 44.632812 C 22.433594 44.871094 22.238281 45.066406 21.996094 45.066406 C 21.753906 45.066406 21.558594 44.871094 21.558594 44.632812 C 21.558594 44.390625 21.753906 44.195312 21.996094 44.195312 C 22.238281 44.195312 22.433594 44.390625 22.433594 44.632812 Z M 22.433594 44.632812 "/>
<path style=" stroke:none;fill-rule:nonzero;fill:rgb(0.392157%,0.392157%,0.392157%);fill-opacity:1;" d="M 54.835938 45.121094 C 54.820312 45.0625 54.808594 45.050781 54.773438 45.050781 C 54.734375 45.050781 54.726562 45.0625 54.710938 45.121094 L 54.378906 46.496094 L 55.167969 46.496094 Z M 57.503906 44.988281 L 57.089844 44.988281 L 57.089844 46.207031 L 57.519531 46.207031 C 57.820312 46.207031 57.972656 46.050781 57.972656 45.730469 L 57.972656 45.472656 C 57.972656 45.140625 57.835938 44.988281 57.503906 44.988281 Z M 57.503906 44.988281 L 57.089844 44.988281 L 57.089844 46.207031 L 57.519531 46.207031 C 57.820312 46.207031 57.972656 46.050781 57.972656 45.730469 L 57.972656 45.472656 C 57.972656 45.140625 57.835938 44.988281 57.503906 44.988281 Z M 54.835938 45.121094 C 54.820312 45.0625 54.808594 45.050781 54.773438 45.050781 C 54.734375 45.050781 54.726562 45.0625 54.710938 45.121094 L 54.378906 46.496094 L 55.167969 46.496094 Z M 60.613281 43.957031 L 47.574219 43.957031 C 47.351562 43.957031 47.171875 44.136719 47.171875 44.355469 C 47.171875 44.464844 47.21875 44.566406 47.289062 44.640625 C 47.363281 44.710938 47.460938 44.757812 47.574219 44.757812 L 50.039062 44.757812 C 50.042969 44.789062 50.042969 44.816406 50.050781 44.847656 C 50.074219 44.988281 50.113281 45.15625 50.164062 45.339844 L 49.070312 45.339844 C 48.851562 45.339844 48.671875 45.523438 48.671875 45.742188 C 48.671875 45.960938 48.851562 46.140625 49.070312 46.140625 L 50.40625 46.140625 C 50.472656 46.347656 50.539062 46.554688 50.605469 46.746094 L 49.609375 46.746094 C 49.386719 46.746094 49.207031 46.929688 49.207031 47.148438 C 49.207031 47.367188 49.386719 47.546875 49.609375 47.546875 L 50.878906 47.546875 C 51.078125 48.070312 51.617188 48.375 52.097656 48.375 L 59.664062 48.375 C 60.183594 48.375 60.5 48.183594 60.773438 47.4375 C 60.988281 46.835938 61.433594 45.5625 61.554688 44.847656 C 61.644531 44.339844 61.34375 43.957031 60.613281 43.957031 Z M 52.105469 47.488281 C 52.402344 47.488281 52.578125 47.328125 52.578125 46.96875 C 52.578125 46.863281 52.628906 46.8125 52.738281 46.8125 L 52.976562 46.8125 C 53.113281 46.8125 53.179688 46.878906 53.179688 47.023438 C 53.179688 47.652344 52.734375 48.027344 52.105469 48.027344 C 51.300781 48.027344 50.933594 47.601562 50.933594 46.660156 L 50.933594 45.765625 C 50.933594 44.824219 51.300781 44.398438 52.105469 44.398438 C 52.734375 44.398438 53.179688 44.769531 53.179688 45.398438 C 53.179688 45.539062 53.113281 45.609375 52.976562 45.609375 L 52.738281 45.609375 C 52.628906 45.609375 52.578125 45.554688 52.578125 45.453125 C 52.578125 45.09375 52.402344 44.9375 52.105469 44.9375 C 51.726562 44.9375 51.550781 45.140625 51.550781 45.601562 L 51.550781 46.816406 C 51.550781 47.28125 51.726562 47.488281 52.105469 47.488281 Z M 55.941406 47.972656 L 55.675781 47.972656 C 55.535156 47.972656 55.507812 47.925781 55.484375 47.804688 L 55.292969 47.03125 L 54.246094 47.03125 L 54.0625 47.804688 C 54.035156 47.925781 54.011719 47.972656 53.867188 47.972656 L 53.605469 47.972656 C 53.464844 47.972656 53.429688 47.890625 53.453125 47.8125 L 54.261719 44.695312 C 54.320312 44.488281 54.4375 44.453125 54.597656 44.453125 L 54.945312 44.453125 C 55.109375 44.453125 55.222656 44.488281 55.28125 44.695312 L 56.089844 47.8125 C 56.113281 47.890625 56.082031 47.972656 55.941406 47.972656 Z M 58.539062 47.972656 L 58.226562 47.972656 C 58.125 47.972656 58.085938 47.925781 58.027344 47.824219 L 57.441406 46.742188 L 57.089844 46.742188 L 57.089844 47.816406 C 57.089844 47.921875 57.039062 47.972656 56.933594 47.972656 L 56.65625 47.972656 C 56.550781 47.972656 56.496094 47.921875 56.496094 47.816406 L 56.496094 44.609375 C 56.496094 44.503906 56.550781 44.453125 56.65625 44.453125 L 57.570312 44.453125 C 58.164062 44.453125 58.59375 44.785156 58.59375 45.5 L 58.59375 45.703125 C 58.59375 46.171875 58.382812 46.496094 58.03125 46.648438 L 58.683594 47.785156 C 58.699219 47.820312 58.707031 47.847656 58.707031 47.867188 C 58.707031 47.9375 58.652344 47.972656 58.539062 47.972656 Z M 60.78125 45.28125 L 60.777344 45.285156 C 60.777344 45.28125 60.78125 45.28125 60.785156 45.277344 Z M 61.0625 44.832031 C 61.0625 44.9375 61.011719 44.988281 60.90625 44.988281 L 60.273438 44.988281 L 60.273438 47.816406 C 60.273438 47.921875 60.222656 47.972656 60.117188 47.972656 L 59.839844 47.972656 C 59.734375 47.972656 59.679688 47.921875 59.679688 47.816406 L 59.679688 44.988281 L 59.050781 44.988281 C 58.945312 44.988281 58.894531 44.9375 58.894531 44.832031 L 58.894531 44.609375 C 58.894531 44.503906 58.945312 44.453125 59.050781 44.453125 L 60.90625 44.453125 C 61.011719 44.453125 61.0625 44.503906 61.0625 44.609375 Z M 60.417969 44.585938 L 60.433594 44.585938 C 60.441406 44.585938 60.453125 44.585938 60.460938 44.589844 C 60.460938 44.589844 60.460938 44.585938 60.460938 44.585938 C 60.445312 44.585938 60.429688 44.585938 60.417969 44.585938 Z M 57.503906 44.988281 L 57.089844 44.988281 L 57.089844 46.207031 L 57.519531 46.207031 C 57.820312 46.207031 57.972656 46.050781 57.972656 45.730469 L 57.972656 45.472656 C 57.972656 45.140625 57.835938 44.988281 57.503906 44.988281 Z M 54.773438 45.050781 C 54.734375 45.050781 54.726562 45.0625 54.710938 45.121094 L 54.378906 46.496094 L 55.167969 46.496094 L 54.835938 45.121094 C 54.820312 45.0625 54.808594 45.050781 54.773438 45.050781 Z M 54.835938 45.121094 C 54.820312 45.0625 54.808594 45.050781 54.773438 45.050781 C 54.734375 45.050781 54.726562 45.0625 54.710938 45.121094 L 54.378906 46.496094 L 55.167969 46.496094 Z M 54.835938 45.121094 C 54.820312 45.0625 54.808594 45.050781 54.773438 45.050781 C 54.734375 45.050781 54.726562 45.0625 54.710938 45.121094 L 54.378906 46.496094 L 55.167969 46.496094 Z M 54.835938 45.121094 "/>
<path style=" stroke:none;fill-rule:nonzero;fill:rgb(0.392157%,0.392157%,0.392157%);fill-opacity:1;" d="M 52.609375 48.605469 C 52.386719 48.605469 52.207031 48.789062 52.207031 49.011719 C 52.207031 49.238281 52.386719 49.417969 52.609375 49.417969 C 52.835938 49.417969 53.015625 49.238281 53.015625 49.011719 C 53.015625 48.789062 52.835938 48.605469 52.609375 48.605469 Z M 52.609375 48.605469 "/>
<path style=" stroke:none;fill-rule:nonzero;fill:rgb(0.392157%,0.392157%,0.392157%);fill-opacity:1;" d="M 48.382812 45.761719 C 48.382812 45.984375 48.203125 46.164062 47.976562 46.164062 C 47.753906 46.164062 47.574219 45.984375 47.574219 45.761719 C 47.574219 45.535156 47.753906 45.355469 47.976562 45.355469 C 48.203125 45.355469 48.382812 45.535156 48.382812 45.761719 Z M 48.382812 45.761719 "/>
<path style=" stroke:none;fill-rule:nonzero;fill:rgb(0.392157%,0.392157%,0.392157%);fill-opacity:1;" d="M 58.792969 48.605469 C 58.570312 48.605469 58.386719 48.789062 58.386719 49.011719 C 58.386719 49.238281 58.570312 49.417969 58.792969 49.417969 C 59.019531 49.417969 59.199219 49.238281 59.199219 49.011719 C 59.199219 48.789062 59.019531 48.605469 58.792969 48.605469 Z M 58.792969 48.605469 "/>
<path style=" stroke:none;fill-rule:nonzero;fill:rgb(0.392157%,0.392157%,0.392157%);fill-opacity:1;" d="M 60.78125 45.28125 L 60.785156 45.277344 C 60.78125 45.28125 60.777344 45.28125 60.773438 45.285156 Z M 60.78125 45.28125 "/>
<path style=" stroke:none;fill-rule:nonzero;fill:rgb(0.392157%,0.392157%,0.392157%);fill-opacity:1;" d="M 60.464844 44.589844 C 60.453125 44.585938 60.441406 44.585938 60.433594 44.585938 L 60.460938 44.585938 C 60.460938 44.585938 60.460938 44.589844 60.464844 44.589844 Z M 60.464844 44.589844 "/>
<path style=" stroke:none;fill-rule:nonzero;fill:rgb(0.392157%,0.392157%,0.392157%);fill-opacity:1;" d="M 60.246094 44.664062 C 60.230469 44.664062 60.214844 44.664062 60.203125 44.664062 L 60.214844 44.664062 C 60.226562 44.664062 60.238281 44.664062 60.246094 44.667969 C 60.246094 44.667969 60.246094 44.664062 60.246094 44.664062 Z M 60.246094 44.664062 "/>
</g>
</svg>
