<?xml version="1.0" encoding="utf-8"?>
<!-- Generator: Adobe Illustrator 24.0.1, SVG Export Plug-In . SVG Version: 6.00 Build 0)  -->
<svg version="1.1" id="Layer_1" xmlns="http://www.w3.org/2000/svg" xmlns:xlink="http://www.w3.org/1999/xlink" x="0px" y="0px"
	 viewBox="0 0 24 24" style="enable-background:new 0 0 24 24;" xml:space="preserve">
<style type="text/css">
	.st0{fill-rule:evenodd;clip-rule:evenodd;}
</style>
<g id="Layer_16">
	<g>
		<path d="M17.3,6.65c-1.39-1.39-3.3-2.24-5.41-2.24S7.86,5.27,6.48,6.65c-1.39,1.39-2.24,3.3-2.24,5.41s0.86,4.03,2.24,5.41
			c1.39,1.39,3.3,2.24,5.41,2.24s4.03-0.86,5.41-2.24c1.39-1.39,2.24-3.3,2.24-5.41C19.54,9.95,18.68,8.04,17.3,6.65 M11.88,3.59
			c2.34,0,4.46,0.95,6,2.48c1.54,1.54,2.48,3.66,2.48,6s-0.95,4.46-2.48,6c-1.54,1.54-3.66,2.48-6,2.48s-4.46-0.95-6-2.48
			c-1.54-1.54-2.48-3.66-2.48-6s0.95-4.46,2.48-6C7.42,4.54,9.54,3.59,11.88,3.59z"/>
		<path class="st0" d="M10.9,10.23c-0.26-0.95-0.4-1.48-0.44-1.61C10.34,8.16,9.37,8.37,9.03,8.6c-1.42,0.98-0.64,2.98,0.13,4.13
			c1.4,1.88,2.78,2.89,4.13,3.02c1.07,0.19,2.34-0.27,2.22-1.54c-0.02-0.17-0.06-0.31-0.12-0.41c-0.1-0.15-0.72-0.35-1.85-0.62
			c-0.22-0.04-0.44,0.08-0.68,0.37c-0.03,0.04-0.07,0.08-0.11,0.12c-0.18,0.16-0.29,0.19-0.5,0.08c-0.64-0.34-1.74-1.73-2-2.16
			c-0.07-0.18-0.02-0.33,0.17-0.47C10.8,10.87,10.95,10.58,10.9,10.23"/>
	</g>
</g>
</svg>
