<?xml version="1.0" encoding="utf-8"?>
<!-- Generator: Adobe Illustrator 24.0.1, SVG Export Plug-In . SVG Version: 6.00 Build 0)  -->
<svg version="1.1" id="Layer_1" xmlns="http://www.w3.org/2000/svg" xmlns:xlink="http://www.w3.org/1999/xlink" x="0px" y="0px"
	 viewBox="0 0 24 24" style="enable-background:new 0 0 24 24;" xml:space="preserve">
<g id="Layer_15">
	<g>
		<path d="M17.3,6.65c-1.39-1.39-3.3-2.24-5.41-2.24S7.85,5.27,6.47,6.65c-1.39,1.39-2.24,3.3-2.24,5.41s0.86,4.03,2.24,5.41
			c1.39,1.39,3.3,2.24,5.41,2.24s4.03-0.86,5.41-2.24c1.39-1.39,2.24-3.3,2.24-5.41C19.54,9.95,18.68,8.04,17.3,6.65 M11.88,3.59
			c2.34,0,4.46,0.95,6,2.48c1.54,1.54,2.48,3.66,2.48,6s-0.95,4.46-2.48,6c-1.54,1.54-3.66,2.48-6,2.48s-4.46-0.95-6-2.48
			c-1.54-1.54-2.48-3.66-2.48-6s0.95-4.46,2.48-6C7.42,4.54,9.54,3.59,11.88,3.59z"/>
		<path d="M10.44,12.51c0,0.37,0.08,0.65,0.23,0.83s0.34,0.27,0.56,0.27c0.17,0,0.32-0.04,0.47-0.12c0.11-0.06,0.22-0.15,0.33-0.28
			c0.16-0.18,0.29-0.44,0.4-0.78s0.17-0.66,0.17-0.96c0-0.33-0.08-0.59-0.23-0.77c-0.16-0.18-0.35-0.27-0.58-0.27
			c-0.25,0-0.49,0.1-0.7,0.29c-0.21,0.2-0.37,0.47-0.48,0.84C10.49,11.91,10.44,12.23,10.44,12.51 M15.2,14.32h0.94
			c-0.29,0.6-0.75,1.07-1.36,1.41c-0.7,0.39-1.55,0.59-2.55,0.59c-0.97,0-1.81-0.16-2.52-0.49C9,15.5,8.48,15.02,8.13,14.38
			c-0.34-0.64-0.52-1.34-0.52-2.09c0-0.83,0.2-1.6,0.59-2.31c0.4-0.73,0.94-1.27,1.62-1.63C10.5,8,11.28,7.82,12.15,7.82
			c0.74,0,1.4,0.14,1.98,0.43s1.02,0.7,1.32,1.23c0.3,0.53,0.46,1.11,0.46,1.74c0,0.75-0.23,1.43-0.69,2.04
			c-0.58,0.77-1.32,1.15-2.23,1.15c-0.24,0-0.43-0.04-0.55-0.13s-0.2-0.21-0.25-0.37c-0.35,0.33-0.75,0.5-1.2,0.5
			c-0.49,0-0.89-0.17-1.22-0.5c-0.32-0.34-0.48-0.78-0.48-1.34c0-0.69,0.19-1.32,0.58-1.89c0.47-0.69,1.07-1.04,1.81-1.04
			c0.52,0,0.91,0.2,1.16,0.6l0.11-0.49h1.16l-0.67,3.16c-0.04,0.2-0.06,0.33-0.06,0.39c0,0.07,0.02,0.13,0.05,0.16
			c0.03,0.04,0.07,0.06,0.12,0.06c0.14,0,0.32-0.09,0.55-0.26c0.3-0.22,0.54-0.52,0.73-0.9c0.19-0.38,0.28-0.77,0.28-1.17
			c0-0.72-0.26-1.33-0.78-1.81c-0.52-0.49-1.25-0.73-2.19-0.73c-0.8,0-1.47,0.16-2.03,0.49C9.55,9.45,9.13,9.9,8.85,10.49
			s-0.42,1.21-0.42,1.85c0,0.62,0.16,1.19,0.47,1.7c0.31,0.51,0.75,0.88,1.32,1.12c0.56,0.23,1.21,0.35,1.94,0.35
			c0.7,0,1.31-0.1,1.81-0.3C14.48,15.01,14.89,14.72,15.2,14.32z"/>
	</g>
</g>
</svg>
