<?xml version="1.0" encoding="utf-8"?>
<!-- Generator: Adobe Illustrator 24.0.1, SVG Export Plug-In . SVG Version: 6.00 Build 0)  -->
<svg version="1.1" id="Layer_11" xmlns="http://www.w3.org/2000/svg" xmlns:xlink="http://www.w3.org/1999/xlink" x="0px" y="0px"
	 viewBox="0 0 24 24" style="enable-background:new 0 0 24 24;" xml:space="preserve">
<style type="text/css">
	.st0{display:none;fill-rule:evenodd;clip-rule:evenodd;}
	.st1{fill-rule:evenodd;clip-rule:evenodd;}
</style>
<g>
	<path d="M17.3,6.65c-1.39-1.39-3.3-2.24-5.41-2.24c-2.11,0-4.03,0.86-5.41,2.24c-1.39,1.39-2.24,3.3-2.24,5.41
		c0,2.11,0.86,4.03,2.24,5.41c1.39,1.39,3.3,2.24,5.41,2.24c2.11,0,4.03-0.86,5.41-2.24c1.39-1.39,2.24-3.3,2.24-5.41
		C19.54,9.95,18.68,8.04,17.3,6.65 M11.88,3.59c2.34,0,4.46,0.95,6,2.48c1.54,1.54,2.48,3.66,2.48,6c0,2.34-0.95,4.46-2.48,6
		c-1.54,1.54-3.66,2.48-6,2.48c-2.34,0-4.46-0.95-6-2.48c-1.54-1.54-2.48-3.66-2.48-6c0-2.34,0.95-4.46,2.48-6
		C7.42,4.54,9.54,3.59,11.88,3.59z"/>
	<path class="st0" d="M11.88,8.37c-2.04,0-3.7,1.66-3.7,3.7c0,2.04,1.66,3.7,3.7,3.7c2.04,0,3.7-1.66,3.7-3.7
		C15.58,10.02,13.93,8.37,11.88,8.37 M11.88,7.59c-2.47,0-4.48,2.01-4.48,4.48c0,2.47,2.01,4.48,4.48,4.48
		c2.47,0,4.48-2.01,4.48-4.48C16.36,9.59,14.36,7.59,11.88,7.59z"/>
	<path class="st0" d="M8.33,12.26c-0.01-0.02-0.01-0.04-0.02-0.06C8.32,12.22,8.32,12.24,8.33,12.26 M8.36,12.33
		c-0.01-0.02-0.01-0.04-0.02-0.06C8.34,12.29,8.35,12.31,8.36,12.33z M8.46,12.59c-0.04-0.08-0.07-0.16-0.1-0.25
		C8.39,12.42,8.43,12.51,8.46,12.59z M8.5,12.65c-0.01-0.02-0.02-0.04-0.03-0.05C8.48,12.62,8.49,12.64,8.5,12.65z M8.59,12.84
		c-0.03-0.06-0.06-0.12-0.09-0.18C8.53,12.72,8.56,12.78,8.59,12.84z M8.63,12.9c-0.01-0.02-0.02-0.03-0.03-0.05
		C8.61,12.86,8.62,12.88,8.63,12.9z M8.66,12.96c-0.01-0.02-0.02-0.03-0.03-0.05C8.64,12.92,8.65,12.94,8.66,12.96z M8.78,13.13
		c-0.04-0.05-0.07-0.11-0.11-0.16C8.71,13.03,8.74,13.08,8.78,13.13z M8.82,13.18c-0.01-0.02-0.02-0.03-0.03-0.05
		C8.79,13.15,8.8,13.17,8.82,13.18z M8.86,13.24c-0.01-0.02-0.02-0.03-0.03-0.05C8.84,13.21,8.85,13.23,8.86,13.24z M8.99,13.4
		c-0.04-0.05-0.08-0.1-0.12-0.14C8.91,13.31,8.95,13.35,8.99,13.4z M9.03,13.45C9.02,13.44,9.01,13.43,9,13.41
		C9.01,13.43,9.02,13.44,9.03,13.45z M9.08,13.51c-0.01-0.01-0.02-0.03-0.03-0.04C9.06,13.48,9.07,13.5,9.08,13.51z M9.13,13.56
		c-0.01-0.01-0.02-0.03-0.04-0.04C9.11,13.54,9.12,13.55,9.13,13.56z M9.22,13.65c-0.03-0.03-0.06-0.06-0.08-0.08
		C9.16,13.59,9.19,13.62,9.22,13.65z M9.27,13.7c-0.01-0.01-0.02-0.02-0.04-0.03C9.25,13.68,9.26,13.69,9.27,13.7z M9.33,13.75
		c-0.01-0.01-0.02-0.02-0.04-0.03C9.3,13.73,9.31,13.74,9.33,13.75z M9.38,13.8c-0.01-0.01-0.02-0.02-0.04-0.03
		C9.36,13.78,9.37,13.79,9.38,13.8z M9.47,13.87c-0.02-0.02-0.04-0.04-0.07-0.05C9.43,13.84,9.45,13.86,9.47,13.87z M9.53,13.92
		c-0.01-0.01-0.02-0.02-0.04-0.03C9.51,13.9,9.52,13.91,9.53,13.92z M9.59,13.97c-0.01-0.01-0.02-0.02-0.04-0.03
		C9.57,13.95,9.58,13.96,9.59,13.97z M9.66,14.01C9.65,14.01,9.63,14,9.62,13.99C9.63,14,9.65,14.01,9.66,14.01z M9.75,14.07
		c-0.02-0.01-0.04-0.02-0.06-0.04C9.71,14.05,9.73,14.06,9.75,14.07z M9.81,14.12C9.8,14.11,9.79,14.1,9.78,14.1
		C9.79,14.1,9.8,14.11,9.81,14.12z M9.88,14.16c-0.01-0.01-0.02-0.01-0.03-0.02C9.86,14.15,9.87,14.15,9.88,14.16z M9.95,14.2
		c-0.01-0.01-0.02-0.01-0.03-0.02C9.93,14.19,9.94,14.19,9.95,14.2z M10.03,14.25c-0.01-0.01-0.02-0.01-0.03-0.02
		C10.01,14.24,10.02,14.24,10.03,14.25z M10.11,14.29c-0.01-0.01-0.02-0.01-0.03-0.02C10.09,14.28,10.1,14.28,10.11,14.29z
		 M10.19,14.32c-0.01-0.01-0.02-0.01-0.03-0.02C10.17,14.31,10.18,14.32,10.19,14.32z M10.26,14.36c-0.01,0-0.02-0.01-0.03-0.01
		C10.24,14.35,10.25,14.35,10.26,14.36z M10.43,14.43c-0.01,0-0.02-0.01-0.03-0.01C10.41,14.42,10.42,14.43,10.43,14.43z
		 M10.51,14.46c-0.01,0-0.02-0.01-0.03-0.01C10.49,14.45,10.5,14.45,10.51,14.46z M10.77,14.54c-0.01,0-0.02-0.01-0.03-0.01
		C10.75,14.54,10.76,14.54,10.77,14.54z M11.11,14.62c-0.01,0-0.02,0-0.03,0C11.1,14.62,11.11,14.62,11.11,14.62z M11.48,14.66
		c-0.01,0-0.02,0-0.03,0C11.46,14.66,11.47,14.66,11.48,14.66z M11.56,14.67c-0.01,0-0.02,0-0.03,0
		C11.54,14.67,11.55,14.67,11.56,14.67z M15.34,10.94c0,0.02,0,0.03,0,0.05C15.34,10.97,15.34,10.95,15.34,10.94z"/>
	<path class="st0" d="M8.8,11.98H8.5v0.17h0.3V11.98z M15.27,11.98h-0.3v0.17h0.3V11.98z M14,14.31l0.22,0.22l0.12-0.12l-0.22-0.22
		L14,14.31z M9.43,9.74l0.22,0.22l0.12-0.12L9.55,9.61L9.43,9.74z M9.64,14.19L9.43,14.4l0.12,0.12l0.22-0.22L9.64,14.19z
		 M14.22,9.61L14,9.83l0.12,0.12l0.22-0.22L14.22,9.61z M11.8,15.15v0.3h0.17v-0.3H11.8z M11.8,8.68v0.3h0.17v-0.3H11.8z"/>
	<path class="st1" d="M12,16.61C21.25,13.1,16.07,5,12,9.38C7.95,5,2.75,13.1,12,16.61"/>
	<path class="st0" d="M12.25,11.94c-0.04-0.11-0.13-0.2-0.24-0.24V9.38c0-0.07-0.05-0.13-0.12-0.13c0,0-0.01,0-0.02,0
		c-0.01,0-0.01,0-0.02,0c-0.07,0.01-0.12,0.06-0.12,0.13v2.32c-0.15,0.05-0.26,0.2-0.26,0.37c0,0.22,0.18,0.39,0.39,0.39
		c0.17,0,0.31-0.11,0.37-0.25h1.64c0.07,0,0.13-0.06,0.13-0.13c0-0.07-0.06-0.13-0.13-0.13H12.25z"/>
</g>
</svg>
