<?xml version="1.0" encoding="utf-8"?>
<!-- Generator: Adobe Illustrator 24.0.1, SVG Export Plug-In . SVG Version: 6.00 Build 0)  -->
<svg version="1.1" id="Layer_1" xmlns="http://www.w3.org/2000/svg" xmlns:xlink="http://www.w3.org/1999/xlink" x="0px" y="0px"
	 viewBox="0 0 24 24" style="enable-background:new 0 0 24 24;" xml:space="preserve">
<style type="text/css">
	.st0{fill-rule:evenodd;clip-rule:evenodd;}
</style>
<g id="Layer_14">
	<g>
		<path d="M17.3,6.65c-1.39-1.39-3.3-2.24-5.41-2.24S7.86,5.27,6.48,6.65c-1.39,1.39-2.24,3.3-2.24,5.41s0.86,4.03,2.24,5.41
			c1.39,1.39,3.3,2.24,5.41,2.24s4.03-0.86,5.41-2.24c1.39-1.39,2.24-3.3,2.24-5.41S18.68,8.04,17.3,6.65 M11.88,3.59
			c2.34,0,4.46,0.95,6,2.48c1.54,1.54,2.48,3.66,2.48,6s-0.95,4.46-2.48,6c-1.54,1.54-3.66,2.48-6,2.48s-4.46-0.95-6-2.48
			c-1.54-1.54-2.48-3.66-2.48-6s0.95-4.46,2.48-6C7.42,4.54,9.54,3.59,11.88,3.59z"/>
		<path class="st0" d="M8.05,10.07v3.86l2.3-1.93L8.05,10.07z M15.14,9.66H8.66l3.24,2.72L15.14,9.66z M15.72,13.92v-3.86l-2.3,1.93
			L15.72,13.92z M12.89,12.44l-0.81,0.68c-0.11,0.09-0.28,0.09-0.39,0l-0.81-0.68l-2.44,2.04h6.88L12.89,12.44z M7.84,9.01h8.08
			c0.24,0,0.44,0.2,0.44,0.44v5.23c0,0.24-0.2,0.44-0.44,0.44H7.84c-0.24,0-0.44-0.2-0.44-0.44V9.45C7.4,9.21,7.6,9.01,7.84,9.01z"
			/>
	</g>
</g>
</svg>
