<?xml version="1.0" encoding="utf-8"?>
<!-- Generator: Adobe Illustrator 24.0.1, SVG Export Plug-In . SVG Version: 6.00 Build 0)  -->
<svg version="1.1" id="Layer_1" xmlns="http://www.w3.org/2000/svg" xmlns:xlink="http://www.w3.org/1999/xlink" x="0px" y="0px"
	 viewBox="0 0 24 24" style="enable-background:new 0 0 24 24;" xml:space="preserve">
<style type="text/css">
	.st0{fill-rule:evenodd;clip-rule:evenodd;}
</style>
<g id="Layer_3">
	<g>
		<path d="M17.3,6.65c-1.39-1.39-3.3-2.24-5.41-2.24S7.86,5.27,6.48,6.65c-1.39,1.39-2.24,3.3-2.24,5.41s0.86,4.03,2.24,5.41
			c1.39,1.39,3.3,2.24,5.41,2.24s4.03-0.86,5.41-2.24c1.39-1.39,2.24-3.3,2.24-5.41C19.54,9.95,18.68,8.04,17.3,6.65 M11.88,3.59
			c2.34,0,4.46,0.95,6,2.48c1.54,1.54,2.48,3.66,2.48,6s-0.95,4.46-2.48,6c-1.54,1.54-3.66,2.48-6,2.48s-4.46-0.95-6-2.48
			c-1.54-1.54-2.48-3.66-2.48-6s0.95-4.46,2.48-6C7.42,4.54,9.54,3.59,11.88,3.59z"/>
		<path d="M8.35,14.02c-0.12-0.14-0.23-0.28-0.32-0.43c-0.12-0.18-0.21-0.37-0.29-0.57c-0.08-0.19-0.14-0.39-0.18-0.6
			c-0.04-0.2-0.06-0.41-0.06-0.62c0-0.09,0-0.19,0.01-0.28s0.02-0.19,0.04-0.28s0.04-0.18,0.06-0.28c0.02-0.09,0.05-0.18,0.09-0.27
			c0.07-0.19,0.16-0.38,0.26-0.55c0.1-0.18,0.22-0.34,0.36-0.5c0.12-0.15,0.27-0.3,0.43-0.44s0.34-0.27,0.52-0.39
			C9.46,8.7,9.66,8.59,9.86,8.5c0.21-0.09,0.42-0.17,0.64-0.23c0.22-0.06,0.45-0.11,0.68-0.14c0.24-0.03,0.47-0.05,0.7-0.05
			s0.46,0.02,0.7,0.05c0.23,0.03,0.46,0.08,0.68,0.14S13.7,8.41,13.9,8.5c0.2,0.09,0.4,0.19,0.59,0.32
			c0.18,0.11,0.36,0.24,0.52,0.39c0.16,0.14,0.31,0.29,0.45,0.45c0.13,0.16,0.25,0.33,0.36,0.5c0.1,0.17,0.19,0.35,0.26,0.55
			c0.03,0.09,0.06,0.18,0.09,0.27c0.02,0.09,0.05,0.18,0.06,0.28c0.02,0.09,0.03,0.19,0.04,0.28s0.01,0.19,0.01,0.28
			s0,0.19-0.01,0.28s-0.02,0.19-0.04,0.28s-0.04,0.18-0.06,0.28c-0.02,0.09-0.05,0.18-0.09,0.27c-0.07,0.19-0.16,0.38-0.26,0.55
			c-0.1,0.18-0.22,0.34-0.36,0.5c-0.14,0.16-0.28,0.31-0.45,0.45c-0.16,0.14-0.34,0.27-0.52,0.39c-0.19,0.12-0.39,0.23-0.59,0.32
			c-0.21,0.09-0.42,0.17-0.64,0.23c-0.22,0.06-0.45,0.11-0.68,0.14c-0.24,0.03-0.47,0.05-0.7,0.05c-0.17,0-0.34-0.01-0.52-0.03
			c-0.17-0.02-0.34-0.04-0.51-0.08s-0.34-0.08-0.5-0.13c-0.13-0.04-0.27-0.09-0.4-0.15L8.35,16c-0.08,0.04-0.16,0.06-0.25,0.05
			C8.02,16.04,7.94,16,7.88,15.94c-0.07-0.06-0.11-0.14-0.13-0.22s-0.01-0.17,0.02-0.25L8.35,14.02z M8.86,13.7l0.18,0.19L8.5,15.25
			l1.43-0.76l0.18,0.08c0.13,0.06,0.27,0.11,0.42,0.16s0.3,0.09,0.44,0.11c0.15,0.03,0.3,0.05,0.45,0.07
			c0.15,0.01,0.31,0.02,0.47,0.02c0.21,0,0.42-0.01,0.62-0.04s0.4-0.07,0.6-0.12c0.19-0.05,0.38-0.12,0.56-0.2s0.35-0.17,0.52-0.27
			c0.16-0.1,0.31-0.21,0.45-0.33c0.14-0.12,0.26-0.25,0.38-0.38c0.11-0.13,0.21-0.27,0.3-0.42s0.16-0.3,0.21-0.45
			c0.03-0.07,0.05-0.14,0.07-0.22c0.02-0.07,0.04-0.15,0.05-0.23c0.01-0.07,0.02-0.15,0.03-0.23c0.01-0.08,0.01-0.15,0.01-0.23
			s0-0.15-0.01-0.23s-0.02-0.15-0.03-0.23c-0.01-0.08-0.03-0.15-0.05-0.22c-0.02-0.08-0.04-0.15-0.07-0.22
			c-0.06-0.15-0.13-0.3-0.21-0.45c-0.09-0.15-0.19-0.29-0.3-0.42c-0.12-0.14-0.24-0.27-0.38-0.38c-0.14-0.12-0.29-0.23-0.45-0.33
			s-0.34-0.19-0.52-0.27c-0.18-0.08-0.37-0.15-0.56-0.2c-0.2-0.05-0.4-0.1-0.6-0.12c-0.2-0.03-0.41-0.04-0.62-0.04
			s-0.42,0.01-0.62,0.04s-0.4,0.07-0.6,0.12c-0.19,0.05-0.38,0.12-0.56,0.2C9.92,9.12,9.75,9.22,9.58,9.32
			c-0.16,0.1-0.31,0.21-0.45,0.33C9,9.77,8.87,9.9,8.76,10.03s-0.21,0.27-0.3,0.42s-0.16,0.3-0.21,0.45
			c-0.03,0.07-0.05,0.14-0.07,0.22c-0.02,0.07-0.04,0.15-0.05,0.22C8.11,11.43,8.1,11.5,8.1,11.58c-0.01,0.08-0.01,0.15-0.01,0.23
			c0,0.17,0.02,0.34,0.05,0.51s0.08,0.33,0.15,0.49s0.15,0.32,0.24,0.47C8.63,13.43,8.74,13.57,8.86,13.7z"/>
		<path class="st0" d="M12.61,9.72c0.1,0.07,0.15,0.17,0.17,0.3c0.01,0.13-0.02,0.25-0.11,0.37c-0.08,0.11-0.19,0.19-0.31,0.22
			c-0.13,0.03-0.24,0.01-0.34-0.06c-0.1-0.07-0.15-0.17-0.16-0.3s0.02-0.25,0.1-0.37c0.08-0.11,0.19-0.19,0.31-0.22
			C12.39,9.63,12.51,9.65,12.61,9.72"/>
		<path class="st0" d="M12.49,11.14l-0.76,2.03c-0.04,0.12-0.07,0.19-0.07,0.23c0,0.02,0.01,0.04,0.02,0.06
			c0.02,0.02,0.03,0.03,0.05,0.03c0.03,0,0.07-0.01,0.1-0.04c0.09-0.07,0.2-0.2,0.33-0.39l0.1,0.07c-0.33,0.52-0.66,0.77-1,0.75
			c-0.13-0.01-0.23-0.05-0.3-0.12c-0.07-0.07-0.11-0.17-0.1-0.28c0-0.07,0.03-0.16,0.07-0.27l0.53-1.38
			c0.05-0.13,0.08-0.23,0.08-0.3c0-0.01,0-0.01,0-0.02c0-0.04,0.01-0.1-0.02-0.13c-0.04-0.04-0.12-0.02-0.19-0.03
			c-0.02,0-0.05,0-0.08,0c-0.07,0-0.08-0.08,0.05-0.14c0.26-0.12,0.71-0.29,0.98-0.31C12.5,10.89,12.59,10.97,12.49,11.14"/>
	</g>
</g>
</svg>
