<?xml version="1.0" encoding="utf-8"?>
<!-- Generator: Adobe Illustrator 24.0.1, SVG Export Plug-In . SVG Version: 6.00 Build 0)  -->
<svg version="1.1" id="Layer_1" xmlns="http://www.w3.org/2000/svg" xmlns:xlink="http://www.w3.org/1999/xlink" x="0px" y="0px"
	 viewBox="0 0 24 24" style="enable-background:new 0 0 24 24;" xml:space="preserve">
<style type="text/css">
	.st0{fill-rule:evenodd;clip-rule:evenodd;}
</style>
<g id="Layer_7">
	<g>
		<path d="M17.3,6.65c-1.39-1.39-3.3-2.24-5.41-2.24S7.85,5.27,6.47,6.65c-1.39,1.39-2.24,3.3-2.24,5.41s0.86,4.03,2.24,5.41
			c1.39,1.39,3.3,2.24,5.41,2.24s4.03-0.86,5.41-2.24c1.39-1.39,2.24-3.3,2.24-5.41C19.54,9.95,18.68,8.04,17.3,6.65 M11.88,3.59
			c2.34,0,4.46,0.95,6,2.48c1.54,1.54,2.48,3.66,2.48,6s-0.95,4.46-2.48,6c-1.54,1.54-3.66,2.48-6,2.48s-4.46-0.95-6-2.48
			c-1.54-1.54-2.48-3.66-2.48-6s0.95-4.46,2.48-6C7.42,4.54,9.54,3.59,11.88,3.59z"/>
		<path class="st0" d="M11.88,9.09c0.92,0,1.67,0.75,1.67,1.67s-0.75,1.67-1.67,1.67s-1.67-0.75-1.67-1.67
			C10.22,9.84,10.96,9.09,11.88,9.09 M11.88,7.26c1.93,0,3.49,1.56,3.49,3.49c0,0.07,0,0.15-0.01,0.22l0,0v0.04l0,0
			c-0.16,2.27-2.27,4.38-3.62,5.85c-1.15-1.4-2.78-3.41-3.23-5.2c-0.08-0.29-0.12-0.6-0.12-0.92C8.39,8.83,9.95,7.26,11.88,7.26z"/>
	</g>
</g>
</svg>
