<?xml version="1.0" encoding="utf-8"?>
<!-- Generator: Adobe Illustrator 24.0.1, SVG Export Plug-In . SVG Version: 6.00 Build 0)  -->
<svg version="1.1" id="Layer_1" xmlns="http://www.w3.org/2000/svg" xmlns:xlink="http://www.w3.org/1999/xlink" x="0px" y="0px"
	 viewBox="0 0 24 24" style="enable-background:new 0 0 24 24;" xml:space="preserve">
<style type="text/css">
	.st0{fill-rule:evenodd;clip-rule:evenodd;}
</style>
<g id="Layer_12">
	<g>
		<path d="M17.3,6.65c-1.39-1.39-3.3-2.24-5.41-2.24S7.85,5.27,6.47,6.65c-1.39,1.39-2.24,3.3-2.24,5.41s0.86,4.03,2.24,5.41
			c1.39,1.39,3.3,2.24,5.41,2.24s4.03-0.86,5.41-2.24c1.39-1.39,2.24-3.3,2.24-5.41S18.68,8.04,17.3,6.65 M11.88,3.59
			c2.34,0,4.46,0.95,6,2.48c1.54,1.54,2.48,3.66,2.48,6s-0.95,4.46-2.48,6c-1.54,1.54-3.66,2.48-6,2.48s-4.46-0.95-6-2.48
			c-1.54-1.54-2.48-3.66-2.48-6s0.95-4.46,2.48-6C7.42,4.54,9.54,3.59,11.88,3.59z"/>
		<path class="st0" d="M12.93,10.55c0.32,0,0.58,0.26,0.58,0.58s-0.26,0.58-0.58,0.58s-0.58-0.26-0.58-0.58S12.61,10.55,12.93,10.55
			 M11.09,10.55c0.32,0,0.58,0.26,0.58,0.58s-0.26,0.58-0.58,0.58s-0.58-0.26-0.58-0.58S10.77,10.55,11.09,10.55z M9.23,10.55
			c0.32,0,0.58,0.26,0.58,0.58s-0.26,0.58-0.58,0.58s-0.58-0.26-0.58-0.58C8.64,10.81,8.9,10.55,9.23,10.55z M11.07,7.72
			c2.19,0,3.96,1.53,3.96,3.42s-1.77,3.42-3.96,3.42c-0.15,0-0.31-0.01-0.46-0.02c-0.21,0.03-0.47,0.02-0.47,0.02
			c-0.15,0.32-1.17,0.89-1.68,1.04c-0.52,0.15-0.4-0.12-0.4-0.12c0.55-0.64,0.51-1.25,0.37-1.69c-0.05-0.15-0.14-0.21-0.26-0.32
			c-0.65-0.61-1.06-1.43-1.06-2.32C7.11,9.25,8.88,7.72,11.07,7.72z"/>
		<path class="st0" d="M11.83,15.04c1.99-0.13,3.73-1.79,3.87-3.78c1.33,1.08,1.27,2.9-0.17,3.86c0,0-0.22,0.69,0.37,1.3
			c0,0-0.76,0.13-1.52-0.77C14.38,15.64,12.64,15.72,11.83,15.04"/>
	</g>
</g>
</svg>
