<?xml version="1.0" encoding="utf-8"?>
<!-- Generator: Adobe Illustrator 24.0.1, SVG Export Plug-In . SVG Version: 6.00 Build 0)  -->
<svg version="1.1" id="Layer_1" xmlns="http://www.w3.org/2000/svg" xmlns:xlink="http://www.w3.org/1999/xlink" x="0px" y="0px"
	 viewBox="0 0 24 24" style="enable-background:new 0 0 24 24;" xml:space="preserve">
<style type="text/css">
	.st0{fill-rule:evenodd;clip-rule:evenodd;}
</style>
<g id="Layer_6">
	<g>
		<path d="M17.3,6.65c-1.39-1.39-3.3-2.24-5.41-2.24S7.86,5.27,6.48,6.65c-1.39,1.39-2.24,3.3-2.24,5.41s0.86,4.03,2.24,5.41
			c1.39,1.39,3.3,2.24,5.41,2.24s4.03-0.86,5.41-2.24c1.39-1.39,2.24-3.3,2.24-5.41S18.68,8.04,17.3,6.65 M11.88,3.59
			c2.34,0,4.46,0.95,6,2.48c1.54,1.54,2.48,3.66,2.48,6s-0.95,4.46-2.48,6c-1.54,1.54-3.66,2.48-6,2.48s-4.46-0.95-6-2.48
			c-1.54-1.54-2.48-3.66-2.48-6s0.95-4.46,2.48-6C7.42,4.54,9.54,3.59,11.88,3.59z"/>
		<path class="st0" d="M10.03,10.57c-0.06,0.05-0.34,0.32,0.11,0.98c0,0,0.03,0.06,0.1,0.06c0.03,0,0.06-0.01,0.1-0.04
			c0.1,0.27,0.28,0.7,0.56,1.03c0.01,0.15,0.01,0.29-0.02,0.37c-0.1,0.22-0.81,0.42-1.01,0.48c-0.2,0.06-1.18,0.25-1.28,1.31
			l-0.03,0.26c-0.7-0.79-1.13-1.82-1.13-2.96c0-2.46,1.99-4.45,4.45-4.45s4.45,1.99,4.45,4.45c0,1.14-0.43,2.17-1.13,2.96
			l-0.03-0.26c-0.1-1.07-1.08-1.25-1.28-1.31c-0.2-0.06-0.91-0.26-1.01-0.48c-0.03-0.07-0.04-0.21-0.02-0.37
			c0.28-0.34,0.46-0.76,0.56-1.03c0.04,0.03,0.07,0.04,0.1,0.04c0.07,0,0.1-0.06,0.1-0.06c0.45-0.66,0.17-0.93,0.11-0.98
			c-0.01-0.01-0.03-0.02-0.04-0.02c-0.05,0-0.08,0.05-0.08,0.05l0,0c0.05-1.26-0.83-1.89-1.72-1.89s-1.78,0.63-1.72,1.89l0,0
			c0,0-0.04-0.05-0.08-0.05C10.06,10.55,10.05,10.56,10.03,10.57 M11.88,7.04c2.78,0,5.03,2.25,5.03,5.03s-2.25,5.03-5.03,5.03
			s-5.03-2.25-5.03-5.03S9.1,7.04,11.88,7.04z"/>
	</g>
</g>
</svg>
