<?xml version="1.0" encoding="utf-8"?>
<!-- Generator: Adobe Illustrator 24.0.1, SVG Export Plug-In . SVG Version: 6.00 Build 0)  -->
<svg version="1.1" id="Layer_1" xmlns="http://www.w3.org/2000/svg" xmlns:xlink="http://www.w3.org/1999/xlink" x="0px" y="0px"
	 viewBox="0 0 24 24" style="enable-background:new 0 0 24 24;" xml:space="preserve">
<style type="text/css">
	.st0{fill-rule:evenodd;clip-rule:evenodd;}
</style>
<g id="Layer_18">
	<g>
		<path d="M17.3,6.65c-1.39-1.39-3.3-2.24-5.41-2.24S7.86,5.27,6.48,6.65c-1.39,1.39-2.24,3.3-2.24,5.41s0.86,4.03,2.24,5.41
			c1.39,1.39,3.3,2.24,5.41,2.24s4.03-0.86,5.41-2.24c1.39-1.39,2.24-3.3,2.24-5.41C19.54,9.95,18.68,8.04,17.3,6.65 M11.88,3.59
			c2.34,0,4.46,0.95,6,2.48c1.54,1.54,2.48,3.66,2.48,6s-0.95,4.46-2.48,6c-1.54,1.54-3.66,2.48-6,2.48s-4.46-0.95-6-2.48
			c-1.54-1.54-2.48-3.66-2.48-6s0.95-4.46,2.48-6C7.42,4.54,9.54,3.59,11.88,3.59z"/>
		<path class="st0" d="M13.34,10.06c-1.11-0.8-2.66-0.55-3.46,0.56s-0.55,2.66,0.56,3.46s2.66,0.55,3.46-0.56
			C14.69,12.41,14.45,10.86,13.34,10.06 M14.7,9.68c0.12,0.14,0.22,0.28,0.32,0.44l1.04-0.03l0.37,1.12l-0.86,0.58
			c0.01,0.17,0.01,0.34,0,0.52l0.86,0.58l-0.35,1.12l-1.03-0.03c-0.05,0.09-0.11,0.17-0.17,0.25c-0.05,0.07-0.1,0.14-0.16,0.2
			l0.35,0.98l-0.95,0.7l-0.82-0.63c-0.18,0.08-0.37,0.14-0.57,0.18l-0.3,0.99l-1.18-0.01l-0.28-0.99c-0.16-0.04-0.33-0.09-0.48-0.16
			l-0.81,0.64l-0.96-0.69l0.34-0.98c-0.12-0.14-0.22-0.28-0.32-0.44l-1.03,0.04l-0.37-1.12l0.85-0.59c-0.01-0.17-0.01-0.34,0-0.52
			l-0.86-0.57l0.35-1.12l1.04,0.01c0.05-0.09,0.11-0.17,0.17-0.25c0.05-0.07,0.1-0.14,0.16-0.2L8.69,8.73l0.95-0.7l0.83,0.62
			c0.18-0.08,0.37-0.14,0.57-0.18l0.29-0.99l1.18,0.01l0.29,0.99c0.17,0.04,0.33,0.1,0.49,0.16l0.82-0.63l0.96,0.69L14.7,9.68z"/>
		<path class="st0" d="M12.66,10.99c0.59,0.43,0.73,1.26,0.3,1.86c-0.43,0.59-1.26,0.73-1.86,0.3c-0.59-0.43-0.73-1.26-0.3-1.86
			C11.24,10.7,12.07,10.56,12.66,10.99 M13.09,10.41c0.92,0.66,1.12,1.94,0.46,2.86c-0.66,0.92-1.94,1.12-2.86,0.46
			s-1.12-1.94-0.46-2.86C10.89,9.95,12.17,9.75,13.09,10.41z"/>
	</g>
</g>
</svg>
