<?xml version="1.0" encoding="utf-8"?>
<!-- Generator: Adobe Illustrator 24.0.1, SVG Export Plug-In . SVG Version: 6.00 Build 0)  -->
<svg version="1.1" id="Layer_1" xmlns="http://www.w3.org/2000/svg" xmlns:xlink="http://www.w3.org/1999/xlink" x="0px" y="0px"
	 viewBox="0 0 24 24" style="enable-background:new 0 0 24 24;" xml:space="preserve">
<style type="text/css">
	.st0{display:none;}
	.st1{display:inline;fill-rule:evenodd;clip-rule:evenodd;}
	.st2{display:inline;}
	.st3{fill:#696565;}
	.st4{fill:#C0BFBF;}
	.st5{fill:#ABAAAA;}
	.st6{fill:#606161;}
	.st7{fill:none;stroke:#FFFFFF;stroke-miterlimit:10;}
</style>
<g id="Layer_4">
	<g>
		<path d="M17.3,6.65c-1.39-1.39-3.3-2.24-5.41-2.24S7.86,5.27,6.48,6.65c-1.39,1.39-2.24,3.3-2.24,5.41s0.86,4.03,2.24,5.41
			c1.39,1.39,3.3,2.24,5.41,2.24s4.03-0.86,5.41-2.24c1.39-1.39,2.24-3.3,2.24-5.41C19.54,9.95,18.68,8.04,17.3,6.65 M11.88,3.59
			c2.34,0,4.46,0.95,6,2.48c1.54,1.54,2.48,3.66,2.48,6s-0.95,4.46-2.48,6c-1.54,1.54-3.66,2.48-6,2.48s-4.46-0.95-6-2.48
			c-1.54-1.54-2.48-3.66-2.48-6s0.95-4.46,2.48-6C7.42,4.54,9.54,3.59,11.88,3.59z"/>
	</g>
	<g class="st0">
		<path class="st1" d="M10.58,10.97c0-0.17,0.05-0.34,0.16-0.51s0.26-0.31,0.47-0.43c0.21-0.11,0.45-0.17,0.72-0.17
			c0.26,0,0.48,0.05,0.68,0.14c0.19,0.09,0.35,0.22,0.45,0.38c0.11,0.16,0.16,0.34,0.16,0.53c0,0.15-0.03,0.28-0.09,0.39
			c-0.06,0.11-0.13,0.21-0.22,0.29c-0.08,0.08-0.23,0.22-0.45,0.41c-0.06,0.05-0.11,0.1-0.14,0.14c-0.04,0.04-0.06,0.08-0.08,0.11
			c-0.02,0.03-0.03,0.07-0.04,0.1c-0.01,0.03-0.02,0.09-0.04,0.18c-0.03,0.18-0.14,0.27-0.31,0.27c-0.09,0-0.17-0.03-0.23-0.09
			c-0.06-0.06-0.09-0.15-0.09-0.27c0-0.15,0.02-0.28,0.07-0.38c0.05-0.11,0.11-0.2,0.18-0.29c0.08-0.08,0.18-0.18,0.31-0.29
			c0.11-0.1,0.19-0.17,0.24-0.22s0.09-0.11,0.13-0.17c0.03-0.06,0.05-0.13,0.05-0.2c0-0.14-0.05-0.26-0.16-0.36
			c-0.11-0.1-0.24-0.15-0.41-0.15c-0.19,0-0.34,0.05-0.43,0.15c-0.09,0.1-0.17,0.24-0.23,0.43c-0.06,0.2-0.17,0.3-0.34,0.3
			c-0.1,0-0.18-0.03-0.25-0.1C10.62,11.13,10.58,11.06,10.58,10.97 M11.87,13.87c-0.11,0-0.2-0.04-0.28-0.1
			c-0.08-0.07-0.12-0.17-0.12-0.29c0-0.11,0.04-0.2,0.12-0.28s0.17-0.11,0.29-0.11c0.11,0,0.2,0.04,0.28,0.11
			c0.08,0.08,0.11,0.17,0.11,0.28c0,0.12-0.04,0.22-0.12,0.29C12.07,13.83,11.98,13.87,11.87,13.87z"/>
		<path class="st2" d="M8.48,13.95c-0.12-0.13-0.22-0.27-0.31-0.41c-0.11-0.17-0.21-0.36-0.28-0.55c-0.08-0.19-0.13-0.38-0.17-0.58
			s-0.06-0.4-0.06-0.6c0-0.09,0-0.18,0.01-0.27s0.02-0.18,0.04-0.27S7.75,11.09,7.77,11c0.02-0.08,0.05-0.17,0.08-0.26
			C7.92,10.55,8,10.38,8.1,10.21c0.1-0.17,0.21-0.33,0.34-0.49C8.56,9.58,8.7,9.44,8.86,9.3c0.16-0.14,0.33-0.26,0.5-0.37
			c0.19-0.12,0.38-0.22,0.57-0.3c0.2-0.09,0.41-0.16,0.62-0.22s0.43-0.1,0.65-0.13c0.23-0.03,0.45-0.05,0.67-0.05
			s0.45,0.02,0.67,0.05C12.78,8.3,13,8.35,13.21,8.41c0.21,0.06,0.42,0.13,0.62,0.22s0.39,0.19,0.57,0.3
			c0.18,0.11,0.34,0.23,0.5,0.37c0.16,0.13,0.3,0.28,0.43,0.44c0.13,0.15,0.24,0.32,0.34,0.49s0.18,0.34,0.25,0.53
			c0.03,0.09,0.06,0.17,0.08,0.26c0.02,0.09,0.04,0.18,0.06,0.27c0.02,0.09,0.03,0.18,0.04,0.27s0.01,0.18,0.01,0.27
			s0,0.18-0.01,0.27s-0.02,0.18-0.04,0.27s-0.04,0.18-0.06,0.27c-0.02,0.08-0.05,0.17-0.08,0.26c-0.07,0.19-0.15,0.36-0.25,0.53
			s-0.21,0.33-0.34,0.49s-0.27,0.3-0.43,0.44c-0.16,0.14-0.33,0.26-0.5,0.37c-0.19,0.12-0.38,0.22-0.57,0.3
			c-0.2,0.09-0.41,0.16-0.62,0.22s-0.43,0.1-0.65,0.13c-0.23,0.03-0.45,0.05-0.67,0.05c-0.16,0-0.33-0.01-0.51-0.03
			c-0.17-0.02-0.33-0.04-0.49-0.08c-0.17-0.03-0.33-0.08-0.48-0.12c-0.13-0.04-0.26-0.09-0.38-0.14l-1.54,0.82
			c-0.08,0.04-0.16,0.06-0.24,0.05s-0.16-0.04-0.22-0.1c-0.06-0.06-0.11-0.13-0.12-0.21c-0.02-0.08-0.01-0.16,0.02-0.24L8.48,13.95z
			 M8.97,13.64l0.17,0.19l-0.52,1.31l1.37-0.73l0.18,0.08c0.13,0.06,0.26,0.11,0.4,0.15c0.14,0.05,0.29,0.08,0.42,0.11
			c0.14,0.03,0.29,0.05,0.44,0.07c0.14,0.01,0.29,0.02,0.45,0.02c0.2,0,0.4-0.01,0.6-0.04c0.19-0.03,0.39-0.07,0.58-0.12
			c0.18-0.05,0.36-0.12,0.54-0.19c0.17-0.08,0.34-0.16,0.5-0.26c0.15-0.1,0.3-0.2,0.43-0.32c0.13-0.11,0.25-0.24,0.37-0.37
			c0.11-0.13,0.2-0.26,0.29-0.41c0.08-0.14,0.15-0.29,0.21-0.43c0.02-0.07,0.05-0.14,0.07-0.21c0.02-0.07,0.03-0.14,0.05-0.22
			c0.01-0.07,0.02-0.14,0.03-0.22c0.01-0.07,0.01-0.15,0.01-0.22c0-0.07,0-0.15-0.01-0.22c-0.01-0.07-0.02-0.15-0.03-0.22
			c-0.01-0.07-0.03-0.15-0.05-0.22c-0.02-0.07-0.04-0.14-0.07-0.21c-0.05-0.15-0.12-0.29-0.21-0.43c-0.08-0.14-0.18-0.28-0.29-0.41
			s-0.23-0.26-0.37-0.37c-0.14-0.12-0.28-0.22-0.43-0.32c-0.16-0.1-0.32-0.19-0.5-0.26c-0.18-0.08-0.36-0.14-0.54-0.19
			c-0.19-0.05-0.38-0.09-0.58-0.12c-0.19-0.03-0.39-0.04-0.6-0.04c-0.2,0-0.4,0.01-0.6,0.04c-0.19,0.03-0.39,0.07-0.58,0.12
			c-0.18,0.05-0.36,0.12-0.54,0.19c-0.17,0.08-0.34,0.16-0.5,0.26c-0.15,0.1-0.3,0.2-0.43,0.32c-0.13,0.1-0.25,0.22-0.36,0.36
			c-0.11,0.13-0.2,0.26-0.29,0.41c-0.08,0.14-0.15,0.29-0.21,0.43c-0.02,0.07-0.05,0.14-0.07,0.21c-0.02,0.07-0.03,0.14-0.05,0.22
			c-0.01,0.07-0.02,0.14-0.03,0.22c-0.01,0.07-0.01,0.15-0.01,0.22c0,0.17,0.02,0.33,0.05,0.49s0.08,0.32,0.14,0.47
			c0.06,0.16,0.14,0.31,0.24,0.45C8.74,13.38,8.85,13.52,8.97,13.64z"/>
	</g>
	<g>
		<g>
			<path class="st3" d="M12.65,7.68h-0.94c-0.09,0-0.15,0.07-0.15,0.15v2.35h1.26V7.83C12.8,7.74,12.73,7.68,12.65,7.68z"/>
			<path class="st4" d="M14.22,8.93h-1.88c-0.09,0-0.15,0.07-0.15,0.15v2.35h2.2V9.08C14.37,9,14.3,8.93,14.22,8.93z"/>
			<path class="st5" d="M12.33,8.3h-2.2c-0.09,0-0.15,0.07-0.15,0.15v2.35h2.51V8.46C12.49,8.37,12.42,8.3,12.33,8.3z"/>
			<path d="M9.35,10.19h5.45c0.11,0,0.18,0.1,0.15,0.19l-0.46,1.84c-0.07,0.28-0.32,0.48-0.61,0.48h-3.42
				c-0.28,0-0.54-0.19-0.61-0.48L9.35,10.19z"/>
			<circle class="st6" cx="13.43" cy="15.84" r="0.63"/>
			<circle cx="13.43" cy="15.84" r="0.32"/>
			<circle class="st6" cx="10.92" cy="15.84" r="0.63"/>
			<circle cx="10.92" cy="15.84" r="0.32"/>
			<path d="M14.37,14.59H9.98c-0.17,0-0.32,0.14-0.32,0.32l0,0c0,0.17,0.14,0.32,0.32,0.32h4.39c0.17,0,0.32-0.14,0.32-0.32l0,0
				C14.69,14.72,14.55,14.59,14.37,14.59z"/>
			<path d="M9.66,10.19c0-0.35-0.28-0.63-0.63-0.63H7.46c-0.17,0-0.32,0.14-0.32,0.32l0,0c0,0.17,0.14,0.32,0.32,0.32L9.66,10.19
				L9.66,10.19z"/>
			<rect x="9.6" y="9.76" transform="matrix(0.9659 -0.2588 0.2588 0.9659 -2.8947 2.9917)" width="0.63" height="5.46"/>
			<g>
				<line class="st7" x1="12.62" y1="12.07" x2="12.62" y2="10.81"/>
				<line class="st7" x1="13.57" y1="12.07" x2="13.57" y2="10.81"/>
				<line class="st7" x1="11.68" y1="12.07" x2="11.68" y2="10.81"/>
				<line class="st7" x1="10.74" y1="12.07" x2="10.74" y2="10.81"/>
			</g>
		</g>
	</g>
</g>
</svg>
