<?xml version="1.0" encoding="utf-8"?>
<!-- Generator: Adobe Illustrator 24.0.1, SVG Export Plug-In . SVG Version: 6.00 Build 0)  -->
<svg version="1.1" id="Layer_1" xmlns="http://www.w3.org/2000/svg" xmlns:xlink="http://www.w3.org/1999/xlink" x="0px" y="0px"
	 viewBox="0 0 24 24" style="enable-background:new 0 0 24 24;" xml:space="preserve">
<g id="Layer_14">
	<g>
		<path d="M17.3,6.65c-1.39-1.39-3.3-2.24-5.41-2.24S7.86,5.27,6.48,6.65c-1.39,1.39-2.24,3.3-2.24,5.41s0.86,4.03,2.24,5.41
			c1.39,1.39,3.3,2.24,5.41,2.24s4.03-0.86,5.41-2.24c1.39-1.39,2.24-3.3,2.24-5.41S18.68,8.04,17.3,6.65 M11.88,3.59
			c2.34,0,4.46,0.95,6,2.48c1.54,1.54,2.48,3.66,2.48,6s-0.95,4.46-2.48,6c-1.54,1.54-3.66,2.48-6,2.48s-4.46-0.95-6-2.48
			c-1.54-1.54-2.48-3.66-2.48-6s0.95-4.46,2.48-6C7.42,4.54,9.54,3.59,11.88,3.59z"/>
		<g>
			<path d="M9.26,13.1c-0.08,0-0.15,0.07-0.15,0.15v0.42c0,0.08,0.07,0.15,0.15,0.15s0.15-0.07,0.15-0.15v-0.41
				C9.41,13.17,9.34,13.1,9.26,13.1L9.26,13.1z"/>
			<path d="M9.26,10.17c-0.08,0-0.15,0.07-0.15,0.15v0.42c0,0.08,0.07,0.15,0.15,0.15s0.15-0.07,0.15-0.15v-0.42
				C9.41,10.24,9.34,10.17,9.26,10.17L9.26,10.17z"/>
			<path d="M11.52,11.03c0-0.04-0.02-0.07-0.05-0.09s-0.06-0.04-0.09-0.04c-0.05,0-0.08,0.02-0.12,0.07l-1.07,1.8
				c-0.01,0.02-0.02,0.03-0.02,0.05c-0.01,0.02-0.01,0.03-0.01,0.04c0,0.04,0.02,0.07,0.05,0.1c0.03,0.02,0.07,0.04,0.11,0.04
				c0.05,0,0.09-0.02,0.12-0.08l1.05-1.8C11.52,11.1,11.52,11.06,11.52,11.03L11.52,11.03z"/>
			<path d="M11.51,12.58c-0.01,0.03-0.02,0.05-0.02,0.08c-0.02,0.02-0.03,0.04-0.05,0.05c-0.02,0.02-0.04,0.02-0.07,0.02
				c-0.02,0-0.05-0.01-0.07-0.02c-0.02-0.02-0.03-0.03-0.05-0.05s-0.02-0.05-0.02-0.08c-0.01-0.03-0.01-0.05-0.01-0.08
				c0-0.06,0.01-0.12,0.04-0.16c0.02-0.05,0.06-0.08,0.11-0.08c0.05,0,0.09,0.02,0.12,0.08c0.02,0.05,0.03,0.11,0.03,0.16
				C11.52,12.53,11.52,12.55,11.51,12.58L11.51,12.58z M11.7,12.13c-0.04-0.05-0.08-0.09-0.14-0.13c-0.05-0.03-0.12-0.05-0.19-0.05
				s-0.14,0.02-0.19,0.05s-0.1,0.08-0.14,0.13s-0.06,0.11-0.08,0.18c-0.02,0.07-0.03,0.13-0.03,0.2s0.01,0.13,0.02,0.2
				c0.02,0.06,0.05,0.12,0.08,0.18c0.04,0.05,0.08,0.09,0.14,0.13c0.05,0.03,0.12,0.05,0.19,0.05c0.08,0,0.14-0.02,0.19-0.05
				c0.05-0.03,0.1-0.08,0.14-0.13s0.06-0.12,0.08-0.18c0.02-0.06,0.03-0.13,0.03-0.2s-0.01-0.13-0.03-0.2
				C11.77,12.24,11.74,12.18,11.7,12.13L11.7,12.13z"/>
			<path d="M9.26,12.12c-0.08,0-0.15,0.07-0.15,0.15v0.42c0,0.08,0.07,0.15,0.15,0.15s0.15-0.07,0.15-0.15v-0.42
				C9.41,12.19,9.34,12.12,9.26,12.12L9.26,12.12z"/>
			<path d="M9.26,11.15c-0.08,0-0.15,0.07-0.15,0.15v0.42c0,0.08,0.07,0.15,0.15,0.15s0.15-0.07,0.15-0.15V11.3
				C9.41,11.22,9.34,11.15,9.26,11.15L9.26,11.15z"/>
			<path d="M10.23,11.59c-0.01-0.02-0.02-0.05-0.02-0.08c-0.01-0.03-0.01-0.05-0.01-0.08s0-0.05,0.01-0.08s0.02-0.05,0.02-0.08
				c0.01-0.02,0.02-0.04,0.05-0.05c0.02-0.02,0.04-0.02,0.07-0.02c0.02,0,0.05,0.01,0.07,0.02c0.02,0.02,0.04,0.03,0.05,0.05
				c0.02,0.02,0.02,0.05,0.02,0.08c0.01,0.03,0.01,0.05,0.01,0.08c0,0.02,0,0.05-0.01,0.08s-0.02,0.05-0.02,0.08
				c-0.02,0.02-0.03,0.05-0.05,0.06c-0.02,0.02-0.05,0.02-0.07,0.02c-0.02,0-0.05-0.01-0.06-0.02
				C10.26,11.64,10.24,11.62,10.23,11.59L10.23,11.59z M10.53,11.93c0.05-0.03,0.1-0.08,0.14-0.13s0.07-0.12,0.08-0.18
				c0.02-0.07,0.03-0.13,0.03-0.19c0-0.07-0.01-0.14-0.03-0.2c-0.02-0.06-0.05-0.12-0.08-0.18s-0.08-0.09-0.14-0.12
				c-0.05-0.03-0.12-0.05-0.19-0.05s-0.14,0.02-0.19,0.05c-0.05,0.03-0.1,0.08-0.14,0.12c-0.04,0.05-0.07,0.11-0.08,0.18
				c-0.02,0.06-0.03,0.13-0.03,0.2c0,0.06,0.01,0.13,0.02,0.19c0.02,0.07,0.05,0.12,0.08,0.18c0.04,0.05,0.08,0.09,0.14,0.13
				c0.05,0.03,0.12,0.05,0.19,0.05C10.41,11.98,10.48,11.96,10.53,11.93L10.53,11.93z"/>
			<path d="M14.6,11.85h-1.96c-0.04,0-0.08,0.02-0.1,0.04s-0.04,0.06-0.04,0.1c0,0.08,0.06,0.15,0.15,0.15h1.96
				c0.04,0,0.08-0.02,0.1-0.04c0.02-0.02,0.04-0.06,0.04-0.1C14.75,11.91,14.68,11.85,14.6,11.85L14.6,11.85z"/>
			<path d="M14.6,12.79h-1.96c-0.04,0-0.08,0.02-0.1,0.04s-0.04,0.06-0.04,0.1c0,0.08,0.06,0.15,0.15,0.15h1.96
				c0.04,0,0.08-0.02,0.1-0.04s0.04-0.06,0.04-0.1C14.75,12.85,14.68,12.79,14.6,12.79L14.6,12.79z"/>
			<path d="M14.6,10.9h-1.96c-0.04,0-0.08,0.02-0.1,0.04c-0.02,0.02-0.04,0.06-0.04,0.1c0,0.08,0.06,0.15,0.15,0.15h1.96
				c0.04,0,0.08-0.02,0.1-0.04c0.02-0.02,0.04-0.06,0.04-0.1C14.75,10.96,14.68,10.9,14.6,10.9L14.6,10.9z"/>
			<path d="M16.13,10.83c-0.58,0.07-1.04,0.56-1.04,1.16s0.45,1.1,1.04,1.16v1.06c0,0.08-0.06,0.14-0.14,0.14H11.1H9.47H9.41v-0.12
				c0-0.08-0.07-0.15-0.15-0.15s-0.15,0.07-0.15,0.15v0.12H7.82c-0.08,0-0.14-0.06-0.14-0.14v-1.06c0.58-0.07,1.04-0.56,1.04-1.16
				s-0.45-1.1-1.04-1.16V9.78c0.01-0.07,0.07-0.13,0.14-0.13H9.1v0.12c0,0.08,0.07,0.15,0.15,0.15S9.4,9.85,9.4,9.77V9.64h0.79h5.79
				c0.08,0,0.14,0.06,0.14,0.14L16.13,10.83L16.13,10.83z M15.99,9.36H10.2H9.41H7.82c-0.23,0-0.42,0.18-0.42,0.42v1.19
				c0,0.04,0.02,0.08,0.05,0.1s0.06,0.04,0.1,0.04l0,0c0.49,0,0.88,0.4,0.88,0.88c0,0.49-0.4,0.88-0.88,0.88l0,0
				c-0.04,0-0.08,0.02-0.1,0.04c-0.03,0.02-0.05,0.06-0.05,0.1v1.19c0,0.23,0.18,0.42,0.42,0.42h1.64h1.63h4.89
				c0.23,0,0.42-0.18,0.42-0.42v-1.18c0-0.04-0.02-0.08-0.05-0.1c-0.03-0.02-0.07-0.04-0.1-0.04l0,0c-0.49,0-0.88-0.4-0.88-0.88
				c0-0.49,0.4-0.88,0.88-0.88l0,0c0.04,0,0.08-0.02,0.1-0.04c0.03-0.02,0.05-0.06,0.05-0.1v-1.2C16.41,9.54,16.22,9.36,15.99,9.36
				L15.99,9.36z"/>
		</g>
	</g>
	<g id="Layer_3">
	</g>
</g>
</svg>
